<?xml version="1.0" encoding="utf-8"?>
<!-- Generator: Adobe Illustrator 27.5.0, SVG Export Plug-In . SVG Version: 6.00 Build 0)  -->
<svg version="1.1" xmlns="http://www.w3.org/2000/svg" xmlns:xlink="http://www.w3.org/1999/xlink" x="0px" y="0px"
	 viewBox="0 0 500 500" style="enable-background:new 0 0 500 500;" xml:space="preserve">
<g id="Background_Simple">
	<g>
		<g>
			<path style="fill:#FFE6DE;" d="M418.343,379.446c-3.758,3.944-7.684,7.773-11.778,11.453
				c-38.991,35.151-92.434,57.872-151.334,62.069c-87.411,6.232-172.049-26.171-215.29-86.86
				c-5.291-7.428-9.966-15.293-13.948-23.549c-8.59-17.823-13.959-37.52-15.402-58.907C3.019,171.321,98.226,83.299,217.369,59.221
				C348.257,32.763,466.204,86.07,471.103,244.74C472.713,296.863,452.524,343.512,418.343,379.446z"/>
		</g>
	</g>
	<g>
		<g>
			<g>
				<g>
					<path style="fill:#FFE6DE;" d="M67.331,222.786c0,0,129.73,205.555,142.88,204.076c13.15-1.48,148.514-94.309,148.377-102.904
						c-0.137-8.595-133.044-196.323-135.046-200.008C221.54,120.266,66.536,213.93,67.331,222.786z"/>
				</g>
				<g>
					<g>
						<path style="fill:#FFFFFF;" d="M66.792,223.101c3.158,5.004,6.338,9.995,9.52,14.983
							c7.992,12.528,16.029,25.028,24.111,37.498c10.587,16.337,21.25,32.625,32.029,48.835
							c10.931,16.439,21.97,32.81,33.275,48.995c8.979,12.856,18.059,25.686,27.83,37.959c3.138,3.942,6.339,7.875,9.878,11.467
							c1.598,1.623,3.766,4.146,6.145,4.601c1.051,0.201,2.196-0.289,3.156-0.661c1.886-0.73,3.704-1.639,5.498-2.569
							c5.742-2.975,11.297-6.319,16.811-9.691c16.379-10.017,32.378-20.666,48.23-31.492c16.439-11.227,32.735-22.69,48.633-34.674
							c5.908-4.454,11.782-8.97,17.439-13.741c3.133-2.642,6.689-5.383,9.066-8.775c1.286-1.836,0.523-3.225-0.407-5.058
							c-1.805-3.557-3.946-6.955-6.053-10.338c-7.772-12.481-15.999-24.684-24.22-36.871
							c-11.001-16.308-22.136-32.525-33.313-48.712c-11.289-16.349-22.63-32.663-33.991-48.962
							c-8.745-12.545-17.509-25.077-26.254-37.621c-2.547-3.654-5.096-7.306-7.622-10.974c-0.645-0.936-1.292-1.872-1.922-2.818
							c-0.291-0.436-0.551-1.07-1.082-1.233c-0.758-0.233-1.86,0.338-2.534,0.609c-1.615,0.649-3.183,1.416-4.74,2.193
							c-5.173,2.581-10.231,5.395-15.27,8.227c-15.571,8.75-30.909,17.922-46.154,27.225c-16.814,10.261-33.516,20.72-49.96,31.565
							c-6.791,4.479-13.544,9.023-20.171,13.742c-4.572,3.256-9.155,6.561-13.396,10.245c-1.197,1.04-2.4,2.113-3.415,3.336
							c-0.526,0.634-1.262,1.503-1.201,2.392c0.055,0.798,1.306,0.804,1.25,0c-0.014-0.203,0.041-0.347,0.258-0.71
							c0.295-0.494,0.593-0.833,0.986-1.269c1.187-1.314,2.539-2.484,3.891-3.623c4.47-3.763,9.242-7.174,14.015-10.538
							c14.519-10.232,29.494-19.827,44.524-29.286c16.504-10.387,33.155-20.547,49.96-30.44
							c11.754-6.919,23.535-13.967,35.769-20.015c1.418-0.701,2.847-1.408,4.325-1.974c0.435-0.166,0.871-0.308,1.32-0.428
							c0.534-0.143,0.014,0.151-0.01-0.249c0.025,0.403,0.719,1.108,0.937,1.429c0.766,1.132,1.544,2.258,2.322,3.383
							c6.593,9.541,13.255,19.034,19.895,28.544c10.424,14.93,20.84,29.866,31.225,44.823
							c11.494,16.556,22.955,33.135,34.331,49.773c9.861,14.422,19.683,28.873,29.274,43.477c3.435,5.231,6.846,10.48,10.148,15.797
							c2.059,3.315,4.159,6.646,5.905,10.14c0.409,0.818,0.769,1.416,0.932,2.298c-0.005-0.026-0.037,0.277-0.147,0.51
							c-0.215,0.458-0.543,0.878-0.849,1.261c-2.834,3.543-6.595,6.472-10.069,9.347c-13.135,10.873-27.049,20.839-40.95,30.699
							c-16.684,11.834-33.589,23.367-50.732,34.527c-12.494,8.134-25.076,16.507-38.388,23.268c-1.626,0.826-3.277,1.651-5,2.26
							c-0.526,0.186-1.076,0.379-1.633,0.451c-0.146,0.019-0.322,0.02-0.698-0.119c-2.269-0.836-4.601-3.52-6.348-5.38
							c-8.561-9.113-15.922-19.44-23.253-29.539c-10.763-14.827-21.144-29.931-31.41-45.105
							c-11.111-16.423-22.06-32.956-32.92-49.546c-9.506-14.522-18.941-29.09-28.319-43.695
							c-5.716-8.901-11.411-17.815-17.076-26.749c-0.768-1.212-1.536-2.423-2.302-3.637
							C67.443,221.792,66.361,222.418,66.792,223.101z"/>
					</g>
				</g>
			</g>
			<g>
				<path style="fill:#FFFFFF;" d="M161.939,272.794c0,0,3.739,5.676,4.609,5.731c0.87,0.055,102.184-68.309,101.798-70.203
					c-0.386-1.894-3.365-5.822-3.365-5.822S162.581,268.1,161.939,272.794z"/>
			</g>
			<g>
				<path style="fill:#FFFFFF;" d="M169.587,281.067c0,0,3.911,6.512,4.78,6.458c0.869-0.054,30.522-18.394,30.348-19.891
					c-0.173-1.497-4.224-6.266-4.224-6.266S173.106,277.634,169.587,281.067z"/>
			</g>
			<g>
				<path style="fill:#FFFFFF;" d="M184.602,302.136c0,0,3.739,5.676,4.609,5.731c0.87,0.055,101.38-66.44,100.607-68.212
					c-1.171-2.686-4.733-6.628-4.733-6.628S185.244,297.443,184.602,302.136z"/>
			</g>
			<g>
				<path style="fill:#FFFFFF;" d="M206.764,331.863c0,0,3.739,5.676,4.609,5.731c0.87,0.055,100.789-64.728,100.403-66.622
					c-0.386-1.894-5.164-7.352-5.164-7.352S207.405,327.17,206.764,331.863z"/>
			</g>
			<g>
				<path style="fill:#FFFFFF;" d="M214.412,340.137c0,0,3.911,6.512,4.78,6.458c0.869-0.054,30.522-18.394,30.348-19.891
					c-0.173-1.497-4.224-6.266-4.224-6.266S217.93,336.703,214.412,340.137z"/>
			</g>
			<g>
				<path style="fill:#FFFFFF;" d="M229.008,366.249c0,0,3.739,5.676,4.609,5.731s100.789-64.728,100.403-66.622
					c-0.386-1.894-5.164-7.351-5.164-7.351S229.65,361.556,229.008,366.249z"/>
			</g>
			<g>
				<path style="fill:#FFFFFF;" d="M236.656,374.523c0,0,3.911,6.512,4.781,6.458c0.869-0.054,30.521-18.394,30.348-19.891
					c-0.173-1.497-4.224-6.266-4.224-6.266S240.175,371.089,236.656,374.523z"/>
			</g>
			<g>
				<path style="fill:#FFFFFF;" d="M144.751,247.508c0,0,3.739,5.676,4.609,5.731c0.87,0.055,101.299-67.366,100.913-69.26
					c-0.386-1.894-4.687-5.743-4.687-5.743S145.393,242.815,144.751,247.508z"/>
			</g>
			<g>
				<path style="fill:#FFFFFF;" d="M74.455,223.993c0,0,15.22,25.44,17.86,27.019c2.64,1.579,144.341-91.27,145.337-93.286
					c0.995-2.016-15.673-28.112-18.336-27.267C216.653,131.303,82.709,209.674,74.455,223.993z"/>
			</g>
		</g>
		<g>
			<g>
				<g>
					<path style="fill:#FFE6DE;" d="M158.945,124.454c0,0-2.724,243.054,9.122,248.955c11.845,5.9,175.921,1.482,180.474-5.809
						c4.553-7.291-5.073-237.103-4.753-241.284C344.108,122.135,163.087,116.587,158.945,124.454z"/>
				</g>
				<g>
					<g>
						<path style="fill:#FFFFFF;" d="M158.32,124.454c-0.018,1.564-0.032,3.127-0.046,4.691c-0.039,4.331-0.071,8.663-0.099,12.994
							c-0.042,6.592-0.073,13.183-0.094,19.775c-0.026,8.22-0.036,16.439-0.03,24.659c0.007,9.443,0.037,18.886,0.092,28.329
							c0.059,10.016,0.147,20.033,0.272,30.049c0.127,10.088,0.291,20.176,0.511,30.263c0.209,9.622,0.468,19.243,0.807,28.861
							c0.304,8.617,0.67,17.233,1.162,25.842c0.404,7.076,0.883,14.152,1.575,21.206c0.493,5.025,1.047,10.074,2.049,15.027
							c0.465,2.296,0.915,5.647,2.685,7.388c0.747,0.734,1.955,0.949,2.94,1.157c1.941,0.411,3.926,0.63,5.898,0.824
							c6.417,0.631,12.88,0.843,19.324,1.009c8.903,0.229,17.812,0.272,26.718,0.234c10.277-0.045,20.554-0.209,30.829-0.464
							c10.423-0.259,20.843-0.611,31.259-1.075c9.471-0.422,18.939-0.931,28.396-1.606c7.384-0.527,14.773-1.127,22.119-2.055
							c4.126-0.521,8.632-0.891,12.54-2.423c0.855-0.335,1.696-0.735,2.041-1.638c0.336-0.88,0.402-1.898,0.501-2.825
							c0.424-3.96,0.471-7.97,0.541-11.948c0.112-6.417,0.095-12.836,0.047-19.253c-0.062-8.257-0.192-16.514-0.351-24.77
							c-0.182-9.501-0.406-19.002-0.652-28.502c-0.263-10.149-0.552-20.298-0.857-30.447c-0.308-10.244-0.634-20.487-0.97-30.73
							c-0.316-9.618-0.642-19.236-0.975-28.853c-0.296-8.554-0.597-17.107-0.899-25.66c-0.24-6.779-0.481-13.559-0.715-20.338
							c-0.154-4.448-0.31-8.896-0.439-13.344c-0.034-1.16-0.069-2.321-0.086-3.482c-0.008-0.532,0.125-1.223-0.264-1.643
							c-0.545-0.587-1.738-0.707-2.469-0.848c-1.698-0.328-3.423-0.53-5.141-0.722c-5.765-0.645-11.561-1.031-17.349-1.391
							c-8.187-0.51-16.381-0.901-24.577-1.24c-9.626-0.397-19.254-0.714-28.885-0.967c-10.089-0.265-20.181-0.461-30.273-0.574
							c-9.58-0.108-19.161-0.145-28.741-0.061c-8.098,0.071-16.198,0.216-24.289,0.573c-5.683,0.251-11.395,0.544-17.032,1.342
							c-1.558,0.221-3.139,0.465-4.646,0.933c-0.806,0.25-1.903,0.589-2.341,1.388c-0.387,0.706,0.692,1.337,1.079,0.631
							c0.068-0.124-0.026-0.034,0.199-0.212c-0.126,0.099,0.275-0.162,0.393-0.223c0.344-0.181,0.923-0.364,1.464-0.512
							c1.674-0.457,3.41-0.708,5.129-0.925c5.81-0.734,11.683-1.012,17.53-1.246c8.176-0.327,16.36-0.458,24.542-0.514
							c9.569-0.066,19.138-0.018,28.706,0.1c10.009,0.123,20.016,0.326,30.022,0.597c9.499,0.258,18.996,0.577,28.49,0.977
							c8.04,0.339,16.079,0.729,24.111,1.239c5.633,0.358,11.275,0.738,16.883,1.383c1.577,0.182,3.163,0.372,4.718,0.696
							c0.453,0.094,0.916,0.191,1.35,0.354c0.474,0.177-0.001,0.091,0.149-0.118c0.028-0.038-0.016,0.271-0.017,0.452
							c-0.001,0.38,0.009,0.759,0.017,1.139c0.028,1.337,0.068,2.673,0.109,4.009c0.142,4.676,0.306,9.351,0.469,14.026
							c0.242,6.954,0.489,13.909,0.735,20.863c0.302,8.54,0.602,17.08,0.896,25.62c0.332,9.643,0.658,19.286,0.974,28.93
							c0.331,10.133,0.651,20.266,0.954,30.399c0.3,10.042,0.583,20.084,0.84,30.127c0.24,9.37,0.457,18.74,0.633,28.112
							c0.152,8.117,0.276,16.236,0.332,24.355c0.043,6.285,0.055,12.571-0.063,18.855c-0.073,3.866-0.12,7.767-0.552,11.614
							c-0.062,0.555-0.093,0.852-0.212,1.449c-0.036,0.181-0.078,0.361-0.124,0.54c-0.026,0.102-0.189,0.497-0.084,0.281
							c-0.128,0.264-0.132,0.259-0.465,0.452c-0.515,0.298-0.834,0.405-1.436,0.602c-4.301,1.405-9.002,1.84-13.472,2.364
							c-7.558,0.886-15.15,1.479-22.741,1.995c-9.519,0.648-19.048,1.139-28.58,1.546c-10.359,0.441-20.723,0.776-31.089,1.017
							c-10.047,0.233-20.097,0.38-30.147,0.408c-8.746,0.024-17.494-0.032-26.237-0.28c-6.195-0.176-12.411-0.393-18.578-1.042
							c-1.811-0.191-3.64-0.403-5.413-0.832c-0.484-0.117-1.22-0.342-1.466-0.459c-0.282-0.135-0.442-0.312-0.549-0.455
							c-1.551-2.068-1.971-5.412-2.444-8.004c-0.944-5.173-1.485-10.421-1.962-15.655c-0.658-7.211-1.12-14.44-1.51-21.669
							c-0.468-8.677-0.819-17.359-1.11-26.044c-0.322-9.612-0.568-19.226-0.767-28.841c-0.207-10.02-0.363-20.041-0.481-30.062
							c-0.117-9.902-0.199-19.804-0.252-29.706c-0.05-9.258-0.075-18.516-0.08-27.773c-0.004-8.088,0.008-16.176,0.036-24.264
							c0.022-6.393,0.053-12.786,0.095-19.178c0.027-4.172,0.059-8.344,0.097-12.516c0.013-1.428,0.026-2.856,0.042-4.284
							C159.579,123.65,158.329,123.649,158.32,124.454z"/>
					</g>
				</g>
			</g>
			<g>
				<path style="fill:#FFFFFF;" d="M211.219,217.83c0,0,0.056,6.797,0.757,7.315c0.701,0.518,122.899-1.853,123.604-3.653
					c0.705-1.8,0.337-6.716,0.337-6.716S214.307,214.238,211.219,217.83z"/>
			</g>
			<g>
				<path style="fill:#FFFFFF;" d="M213.147,228.93c0,0-0.253,7.592,0.506,8.019c0.759,0.427,35.618,1.134,36.285-0.218
					c0.668-1.351-0.143-7.556-0.143-7.556S217.966,227.959,213.147,228.93z"/>
			</g>
			<g>
				<path style="fill:#FFFFFF;" d="M214.31,254.776c0,0,0.056,6.797,0.757,7.315c0.701,0.518,121.209-0.72,121.523-2.627
					c0.475-2.892-0.375-8.136-0.375-8.136S217.398,251.184,214.31,254.776z"/>
			</g>
			<g>
				<path style="fill:#FFFFFF;" d="M216.771,291.773c0,0,0.056,6.797,0.757,7.315c0.701,0.518,119.783,0.397,120.488-1.403
					c0.705-1.8-0.343-8.978-0.343-8.978S219.859,288.181,216.771,291.773z"/>
			</g>
			<g>
				<path style="fill:#FFFFFF;" d="M218.698,302.874c0,0-0.253,7.592,0.506,8.019c0.76,0.427,35.618,1.134,36.286-0.218
					c0.668-1.351-0.143-7.556-0.143-7.556S223.518,301.902,218.698,302.874z"/>
			</g>
			<g>
				<path style="fill:#FFFFFF;" d="M216.771,332.727c0,0,0.056,6.797,0.757,7.315c0.701,0.518,119.783,0.396,120.488-1.403
					c0.705-1.8-0.343-8.977-0.343-8.977S219.859,329.134,216.771,332.727z"/>
			</g>
			<g>
				<path style="fill:#FFFFFF;" d="M218.698,343.828c0,0-0.253,7.592,0.506,8.019c0.76,0.427,35.618,1.134,36.286-0.218
					c0.668-1.351-0.143-7.556-0.143-7.556S223.518,342.856,218.698,343.828z"/>
			</g>
			<g>
				<path style="fill:#FFFFFF;" d="M210.521,187.264c0,0,0.056,6.797,0.757,7.315c0.701,0.519,121.644-1.541,122.348-3.341
					c0.705-1.8-0.816-7.368-0.816-7.368S213.609,183.671,210.521,187.264z"/>
			</g>
			<g>
				<path style="fill:#FFFFFF;" d="M164.27,129.338c0,0-1.039,29.627,0.32,32.386c1.359,2.76,170.768,1.767,172.699,0.615
					c1.931-1.152,2.109-32.117-0.585-32.854C334.01,128.748,178.979,121.799,164.27,129.338z"/>
			</g>
		</g>
	</g>
	<g>
		<path style="fill:#FFFFFF;" d="M283.097,424.036l2.355-7.17l2.674,7.17c0,0,5.342,0.909,5.404,1.407
			c0.061,0.487-5.113,2.012-5.113,2.012s-2.171,6.952-2.965,5.378c-0.794-1.574-1.564-5.06-1.564-5.06s-6.727-1.398-6.727-2.083
			C277.161,424.946,283.097,424.036,283.097,424.036z"/>
	</g>
	<g>
		<path style="fill:#FFFFFF;" d="M420.39,158.23l3.162-9.629l3.591,9.629c0,0,7.174,1.22,7.257,1.889
			c0.082,0.654-6.866,2.702-6.866,2.702s-2.916,9.336-3.982,7.221c-1.066-2.114-2.1-6.795-2.1-6.795s-9.034-1.877-9.034-2.798
			C412.418,159.453,420.39,158.23,420.39,158.23z"/>
	</g>
	<g>
		<path style="fill:#FFFFFF;" d="M374.808,196.057l1.748-5.322l1.985,5.322c0,0,3.965,0.674,4.012,1.044
			c0.045,0.362-3.796,1.494-3.796,1.494s-1.612,5.161-2.201,3.992c-0.589-1.169-1.161-3.756-1.161-3.756s-4.994-1.037-4.994-1.546
			C370.401,196.733,374.808,196.057,374.808,196.057z"/>
	</g>
	<g>
		<path style="fill:#FFFFFF;" d="M327.529,416.866l1.748-5.322l1.985,5.322c0,0,3.965,0.674,4.012,1.044
			c0.045,0.362-3.795,1.493-3.795,1.493s-1.612,5.161-2.201,3.992c-0.589-1.169-1.161-3.756-1.161-3.756s-4.994-1.037-4.994-1.546
			C323.122,417.542,327.529,416.866,327.529,416.866z"/>
	</g>
	<g>
		<path style="fill:#FFFFFF;" d="M377.214,357.726l2.355-7.17l2.674,7.17c0,0,5.342,0.909,5.404,1.407
			c0.061,0.487-5.113,2.012-5.113,2.012s-2.171,6.952-2.965,5.378c-0.794-1.574-1.564-5.06-1.564-5.06s-6.727-1.397-6.727-2.083
			C371.278,358.636,377.214,357.726,377.214,357.726z"/>
	</g>
	<g>
		<path style="fill:#FFFFFF;" d="M106.844,129.84l1.515-4.613l1.72,4.613c0,0,3.437,0.585,3.477,0.905
			c0.039,0.313-3.289,1.294-3.289,1.294s-1.397,4.473-1.908,3.46c-0.511-1.013-1.006-3.255-1.006-3.255s-4.328-0.899-4.328-1.34
			C103.025,130.426,106.844,129.84,106.844,129.84z"/>
	</g>
	<g>
		<path style="fill:#FFFFFF;" d="M41.516,211.075l2.355-7.17l2.674,7.17c0,0,5.342,0.909,5.404,1.407
			c0.061,0.487-5.113,2.012-5.113,2.012s-2.171,6.952-2.965,5.378c-0.794-1.574-1.564-5.06-1.564-5.06s-6.727-1.397-6.727-2.083
			C35.579,211.986,41.516,211.075,41.516,211.075z"/>
	</g>
	<g>
		<path style="fill:#FFFFFF;" d="M167.22,410.6l2.355-7.17l2.674,7.17c0,0,5.342,0.909,5.404,1.407
			c0.061,0.487-5.113,2.012-5.113,2.012s-2.171,6.952-2.965,5.378s-1.564-5.06-1.564-5.06s-6.727-1.397-6.727-2.083
			C161.284,411.511,167.22,410.6,167.22,410.6z"/>
	</g>
	<g>
		<g>
			<path style="fill:#FFFFFF;" d="M60.092,257.21l-1.001,0.441c0.516,1.944,3.338,17.339-4.423,25.272
				c-8.145,8.326-20.691,8.839-20.691,8.839v1.02c3.032,0.915,15.97,4.328,18.079,13.644c2.411,10.647-5.424,22.7-5.424,22.7
				l0.321,0.339c1.762-1.458,11.618-9.704,23.985-8.977c13.66,0.803,20.088,14.263,19.887,14.062s1.808-1.004,1.406-1.205
				c-0.402-0.201-6.428-15.669,1.607-24.909c8.035-9.241,21.093-8.638,21.093-8.638v-2.611c0,0-16.874-1.607-18.28-12.053
				c-1.406-10.446,7.633-18.28,7.031-18.481c-0.603-0.201-1.286-0.939-1.286-0.939s-9.763,9.979-23.825,5.559
				C64.511,266.852,60.092,257.21,60.092,257.21z"/>
		</g>
	</g>
	<g>
		<g>
			<path style="fill:#FFFFFF;" d="M242.572,66.65l-1.001,0.44c0.516,1.944,3.338,17.339-4.423,25.272
				c-8.145,8.326-20.691,8.839-20.691,8.839v1.02c3.032,0.915,15.97,4.328,18.079,13.644c2.411,10.647-5.424,22.7-5.424,22.7
				l0.321,0.339c1.762-1.458,11.618-9.704,23.985-8.977c13.66,0.803,20.088,14.263,19.887,14.062
				c-0.201-0.201,1.808-1.004,1.406-1.205c-0.402-0.201-6.428-15.669,1.607-24.909c8.035-9.241,21.093-8.638,21.093-8.638v-2.611
				c0,0-16.874-1.607-18.28-12.053c-1.406-10.446,7.634-18.28,7.031-18.481c-0.603-0.201-1.286-0.939-1.286-0.939
				s-9.763,9.979-23.824,5.559C246.992,76.293,242.572,66.65,242.572,66.65z"/>
		</g>
	</g>
</g>
<g id="Lines">
	<g>
		<g>
			<path style="fill:#421B36;" d="M314.915,375.481c11.683,7.373,23.366,14.747,35.049,22.12c0.225-0.533,0.449-1.066,0.674-1.599
				c-18.542-3.009-37.083-6.017-55.625-9.026c-0.577-0.094-1.35,0.388-1.076,1.076c6.771,17.034,13.542,34.068,20.314,51.102
				c0.428-0.329,0.857-0.659,1.285-0.988c-13.31-5.697-25.732-13.423-36.675-22.907c-3.126-2.709-6.126-5.56-9.003-8.532
				c-0.461-0.477-1.288-0.24-1.462,0.386c-3.74,13.427-10.69,25.703-14.43,39.13c0.563,0,1.125,0,1.688,0
				c-1.078-5.026-2.156-10.052-3.234-15.077c-1.71-7.974-3.421-15.947-5.131-23.921c-0.397-1.853-0.795-3.705-1.192-5.558
				c-0.133-0.622-1.04-0.873-1.462-0.386c-7.305,8.413-14.61,16.826-21.915,25.24c-1.017,1.171-2.034,2.342-3.051,3.514
				c0.498,0.206,0.996,0.413,1.494,0.619c0.76-8.384,1.52-16.769,2.28-25.153c0.109-1.2,0.218-2.4,0.326-3.6
				c0.102-1.121-1.649-1.114-1.75,0c-0.76,8.384-1.52,16.768-2.28,25.153c-0.109,1.2-0.218,2.4-0.326,3.601
				c-0.067,0.743,1.013,1.173,1.494,0.619c7.305-8.413,14.61-16.826,21.915-25.24c1.017-1.171,2.034-2.342,3.051-3.514
				c-0.488-0.129-0.975-0.257-1.462-0.386c1.078,5.026,2.156,10.052,3.234,15.077c1.71,7.974,3.421,15.947,5.131,23.921
				c0.397,1.852,0.795,3.705,1.192,5.558c0.186,0.866,1.465,0.8,1.688,0c3.74-13.427,10.69-25.703,14.43-39.13
				c-0.487,0.129-0.975,0.257-1.462,0.386c10.121,10.456,21.845,19.349,34.662,26.244c3.706,1.993,7.502,3.813,11.37,5.469
				c0.603,0.258,1.603-0.189,1.285-0.988c-6.771-17.034-13.543-34.068-20.314-51.102c-0.359,0.359-0.718,0.718-1.076,1.076
				c18.542,3.009,37.083,6.017,55.625,9.026c0.946,0.154,1.56-1.04,0.674-1.599c-11.683-7.373-23.366-14.747-35.049-22.12
				C314.843,373.367,313.964,374.88,314.915,375.481L314.915,375.481z"/>
		</g>
	</g>
	<g>
		<g>
			<path style="fill:#421B36;" d="M121.678,114.312c-6.216-5.378-11.293-11.902-14.978-19.249c-0.399,0.399-0.798,0.798-1.197,1.197
				c11.901,5.757,23.803,11.514,35.704,17.271c0.579,0.28,1.324-0.051,1.317-0.756c-0.168-17.091,0.929-34.186,3.311-51.112
				c-0.533,0.07-1.066,0.139-1.599,0.209c10.315,13.858,20.63,27.715,30.945,41.572c0.341,0.458,1.222,0.671,1.511,0
				c7.248-16.812,17.346-32.313,29.821-45.712c-0.498-0.206-0.996-0.412-1.494-0.619c0.18,12.864,0.36,25.729,0.54,38.593
				c0.016,1.125,1.766,1.128,1.75,0c-0.18-12.864-0.36-25.729-0.54-38.593c-0.01-0.733-0.965-1.187-1.494-0.619
				c-12.574,13.506-22.789,29.121-30.095,46.067c0.504,0,1.007,0,1.511,0c-10.315-13.858-20.63-27.715-30.945-41.573
				c-0.384-0.515-1.482-0.625-1.599,0.209c-2.405,17.084-3.543,34.325-3.373,51.577c0.439-0.252,0.878-0.504,1.317-0.756
				c-11.902-5.757-23.803-11.514-35.704-17.271c-0.794-0.384-1.6,0.393-1.197,1.197c3.744,7.466,8.935,14.139,15.251,19.604
				C121.289,116.283,122.532,115.05,121.678,114.312L121.678,114.312z"/>
		</g>
	</g>
</g>
<g id="Speech_Bubble">
	<g>
		<g>
			<g>
				<g>
					<g>
						<path style="fill:#8380FF;" d="M401.215,112.418c-8.093-11.561-22.698-18.535-37.351-18.806l0.099-0.013
							c-10.63-0.846-24.52,1.615-32.238,8.532c-7.718,6.917-12.365,16.624-13.435,26.594c-1.572,14.649,5.128,29.877,17.016,39.286
							c-2.504,3.887-6.002,7.134-10.102,9.276c6.442,1.509,13.491-0.028,18.821-3.924c0.157,0.072,0.304,0.16,0.462,0.23
							c17.523,7.829,40.329,3.373,53.073-10.371C410.305,149.478,411.876,127.648,401.215,112.418z"/>
					</g>
				</g>
			</g>
		</g>
		<g>
			<g>
				<g>
					<g>
						<path style="fill:#A0D2F4;" d="M385.861,111.092c-1.965,1.617-27.009,36.664-27.009,36.664s-15.837-21.509-16.161-22.163
							c0,0-7.096,3.534-7.586,5.937c-0.491,2.403,17.554,28.927,23.955,27.92c6.4-1.007,35.469-42.472,35.469-42.472
							L385.861,111.092z"/>
					</g>
				</g>
			</g>
		</g>
	</g>
</g>
<g id="Documents">
	<g>
		<g>
			<g>
				<path style="fill:#FFFFFF;" d="M96.369,162.273c0,0,79.098,229.84,92.237,231.418c13.139,1.578,166.192-57.711,168.031-66.108
					c1.839-8.397-84.441-221.615-85.544-225.66C269.988,97.876,97.627,153.471,96.369,162.273z"/>
			</g>
			<g>
				<g>
					<path style="fill:#421B36;" d="M95.766,162.439c0.513,1.49,1.028,2.979,1.544,4.467c1.42,4.097,2.847,8.192,4.278,12.285
						c2.176,6.226,4.363,12.449,6.56,18.668c2.748,7.781,5.511,15.557,8.29,23.327c3.181,8.894,6.383,17.781,9.609,26.659
						c3.419,9.407,6.864,18.804,10.345,28.188c3.522,9.495,7.081,18.976,10.691,28.438c3.441,9.019,6.929,18.021,10.493,26.993
						c3.166,7.97,6.392,15.918,9.73,23.818c2.767,6.548,5.603,13.07,8.637,19.5c2.137,4.529,4.337,9.062,6.935,13.349
						c1.195,1.973,2.735,4.956,4.964,5.968c0.992,0.451,2.229,0.226,3.266,0.084c1.956-0.269,3.886-0.723,5.8-1.203
						c6.306-1.582,12.514-3.573,18.689-5.601c8.515-2.797,16.972-5.772,25.4-8.823c9.62-3.483,19.199-7.076,28.746-10.753
						c9.758-3.758,19.482-7.605,29.164-11.556c8.72-3.559,17.409-7.197,26.032-10.986c6.791-2.984,13.561-6.038,20.18-9.389
						c3.679-1.863,7.778-3.723,10.898-6.483c1.678-1.485,1.279-2.996,0.794-4.996c-0.94-3.883-2.247-7.687-3.522-11.468
						c-2.063-6.113-4.248-12.184-6.462-18.244c-2.847-7.792-5.758-15.561-8.695-23.319c-3.362-8.878-6.761-17.741-10.181-26.596
						c-3.669-9.5-7.363-18.99-11.072-28.475c-3.708-9.483-7.432-18.959-11.167-28.432c-3.551-9.006-7.111-18.009-10.677-27.009
						c-3.128-7.894-6.26-15.786-9.394-23.678c-2.504-6.307-5.01-12.612-7.509-18.921c-1.633-4.122-3.269-8.244-4.879-12.376
						c-0.415-1.066-0.833-2.131-1.232-3.203c-0.18-0.483-0.286-1.151-0.757-1.427c-0.708-0.414-1.957-0.092-2.694,0.019
						c-1.698,0.256-3.377,0.642-5.047,1.036c-5.642,1.331-11.227,2.914-16.797,4.518c-7.909,2.279-15.785,4.672-23.645,7.116
						c-9.183,2.855-18.342,5.788-27.481,8.78c-9.617,3.149-19.213,6.364-28.781,9.658c-9.077,3.124-18.131,6.316-27.143,9.622
						c-7.574,2.778-15.125,5.628-22.596,8.673c-5.238,2.135-10.5,4.31-15.511,6.944c-1.395,0.734-2.797,1.499-4.062,2.446
						c-0.655,0.491-1.596,1.172-1.739,2.049c-0.128,0.787,1.076,1.126,1.205,0.332c0.043-0.264,0.141-0.364,0.389-0.623
						c0.387-0.406,0.763-0.679,1.199-0.984c1.44-1.006,3.012-1.83,4.576-2.624c5.226-2.652,10.668-4.888,16.101-7.074
						c7.567-3.044,15.207-5.908,22.87-8.701c9.002-3.282,18.044-6.456,27.107-9.563c9.435-3.235,18.895-6.396,28.377-9.491
						c9.047-2.954,18.113-5.848,27.203-8.666c7.665-2.376,15.346-4.703,23.06-6.916c5.424-1.556,10.864-3.093,16.362-4.374
						c1.607-0.374,3.227-0.748,4.862-0.977c0.318-0.045,0.859-0.113,1.29-0.11c0.602,0.004,0.167,0.12,0.17-0.137
						c0.003-0.21,0.053,0.187,0.118,0.373c0.125,0.357,0.263,0.711,0.398,1.064c0.471,1.24,0.954,2.475,1.438,3.71
						c1.715,4.381,3.45,8.755,5.184,13.128c2.545,6.418,5.094,12.834,7.642,19.251c3.153,7.941,6.305,15.884,9.451,23.828
						c3.557,8.98,7.107,17.963,10.648,26.949c3.703,9.398,7.395,18.8,11.072,28.208c3.662,9.371,7.309,18.748,10.931,28.135
						c3.364,8.719,6.708,17.447,10.013,26.189c2.88,7.615,5.732,15.241,8.521,22.89c2.152,5.901,4.275,11.815,6.276,17.769
						c1.238,3.684,2.51,7.392,3.411,11.177c0.226,0.949,0.417,1.649,0.398,2.497c-0.001,0.025-0.09,0.294-0.225,0.452
						c-0.352,0.413-0.762,0.77-1.189,1.103c-3.512,2.743-7.764,4.699-11.732,6.668c-6.795,3.372-13.724,6.475-20.676,9.505
						c-8.742,3.811-17.547,7.476-26.384,11.06c-9.579,3.886-19.197,7.673-28.849,11.373c-9.448,3.622-18.928,7.162-28.449,10.589
						c-8.186,2.947-16.402,5.82-24.675,8.513c-5.953,1.938-11.941,3.845-18.028,5.325c-1.772,0.431-3.571,0.859-5.387,1.058
						c-0.545,0.06-1.119,0.123-1.667,0.065c-0.219-0.023-0.305-0.023-0.684-0.271c-2.029-1.33-3.663-4.458-4.933-6.661
						c-2.622-4.548-4.895-9.3-7.102-14.06c-3.041-6.56-5.904-13.203-8.697-19.873c-3.364-8.035-6.62-16.114-9.82-24.216
						c-3.525-8.923-6.978-17.875-10.388-26.842c-3.571-9.391-7.093-18.801-10.58-28.223c-3.429-9.265-6.825-18.542-10.194-27.829
						c-3.166-8.725-6.308-17.458-9.43-26.198c-2.715-7.599-5.414-15.203-8.1-22.812c-2.124-6.019-4.239-12.041-6.344-18.066
						c-1.381-3.954-2.759-7.909-4.13-11.867c-0.468-1.352-0.937-2.704-1.402-4.057C96.711,161.351,95.503,161.676,95.766,162.439z"
						/>
				</g>
			</g>
		</g>
		<g>
			<path style="fill:#A0D2F4;" d="M176.976,232.657c0,0,2.337,6.383,3.171,6.635c0.834,0.253,115.132-43.038,115.191-44.97
				c0.059-1.932-1.939-6.438-1.939-6.438S178.678,228.236,176.976,232.657z"/>
		</g>
		<g>
			<path style="fill:#A0D2F4;" d="M182.522,242.465c0,0,2.312,7.236,3.171,7.383c0.859,0.147,33.928-10.899,34.103-12.396
				c0.175-1.497-2.674-7.068-2.674-7.068S186.734,239.93,182.522,242.465z"/>
		</g>
		<g>
			<path style="fill:#A0D2F4;" d="M143.492,244.976c0,0,5.997,18.452,8.097,20.985s23.831-7.677,24.231-8.811
				c0.4-1.134-5.696-19.252-7.642-22.352C167.35,233.48,143.083,242.215,143.492,244.976z"/>
		</g>
		<g>
			<g>
				<g>
					<path style="fill:#8380FF;" d="M166.235,234.113c-0.549,1.106-4.643,18.215-4.643,18.215s-10.51-4.656-10.783-4.882
						c0,0-3.246,4.634-2.986,5.796c0.26,1.161,14.334,9.242,16.968,7.525c2.633-1.717,7.457-24.533,7.457-24.533L166.235,234.113z"
						/>
				</g>
			</g>
		</g>
		<g>
			<path style="fill:#A0D2F4;" d="M192.301,266.417c0,0,2.337,6.383,3.171,6.635c0.834,0.253,113.921-41.403,113.576-43.304
				c-0.524-2.883-3.086-7.537-3.086-7.537S194.003,261.996,192.301,266.417z"/>
		</g>
		<g>
			<path style="fill:#A0D2F4;" d="M158.816,278.737c0,0,5.997,18.452,8.097,20.985c2.1,2.533,23.831-7.677,24.231-8.812
				c0.4-1.134-5.696-19.252-7.642-22.352C182.675,267.24,158.408,275.975,158.816,278.737z"/>
		</g>
		<g>
			<g>
				<g>
					<path style="fill:#8380FF;" d="M181.56,267.873c-0.549,1.106-4.643,18.216-4.643,18.216s-10.51-4.657-10.783-4.882
						c0,0-3.245,4.634-2.986,5.796c0.26,1.161,14.335,9.242,16.968,7.525c2.633-1.717,7.457-24.533,7.457-24.533L181.56,267.873z"/>
				</g>
			</g>
		</g>
		<g>
			<path style="fill:#A0D2F4;" d="M207.049,300.436c0,0,2.337,6.383,3.171,6.635c0.834,0.253,112.953-39.872,113.012-41.804
				c0.059-1.932-3.34-8.34-3.34-8.34S208.751,296.015,207.049,300.436z"/>
		</g>
		<g>
			<path style="fill:#A0D2F4;" d="M212.594,310.244c0,0,2.312,7.236,3.171,7.383c0.859,0.147,33.928-10.899,34.103-12.396
				c0.175-1.497-2.674-7.069-2.674-7.069S216.807,307.71,212.594,310.244z"/>
		</g>
		<g>
			<path style="fill:#A0D2F4;" d="M173.564,312.756c0,0,5.997,18.452,8.097,20.985c2.1,2.533,23.831-7.677,24.231-8.812
				c0.4-1.134-5.696-19.252-7.642-22.352C197.423,301.259,173.156,309.994,173.564,312.756z"/>
		</g>
		<g>
			<g>
				<g>
					<path style="fill:#8380FF;" d="M196.308,301.892c-0.549,1.106-4.643,18.215-4.643,18.215s-10.51-4.656-10.783-4.882
						c0,0-3.245,4.634-2.986,5.796c0.26,1.161,14.334,9.242,16.968,7.525c2.633-1.717,7.457-24.533,7.457-24.533L196.308,301.892z"
						/>
				</g>
			</g>
		</g>
		<g>
			<path style="fill:#A0D2F4;" d="M166.049,204.102c0,0,2.337,6.383,3.171,6.635c0.834,0.253,114.054-42.322,114.113-44.254
				c0.059-1.932-3.244-6.665-3.244-6.665S167.751,199.681,166.049,204.102z"/>
		</g>
		<g>
			<path style="fill:#A0D2F4;" d="M130.369,211.688c0,0,5.997,18.452,8.097,20.985c2.1,2.533,23.831-7.677,24.231-8.811
				c0.4-1.134-5.696-19.252-7.642-22.352C154.227,200.191,129.961,208.926,130.369,211.688z"/>
		</g>
		<g>
			<path style="fill:#8380FF;" d="M103.025,165.083c0,0,8.976,28.253,11.183,30.396c2.207,2.143,161.434-55.712,162.866-57.445
				c1.432-1.734-8.804-30.958-11.589-30.747S114.345,153.041,103.025,165.083z"/>
		</g>
		<g>
			<g>
				<g>
					<path style="fill:#8380FF;" d="M153.113,200.824c-0.549,1.106-4.643,18.215-4.643,18.215s-10.51-4.656-10.783-4.882
						c0,0-3.245,4.634-2.986,5.796c0.26,1.161,14.335,9.242,16.968,7.525c2.633-1.717,7.457-24.533,7.457-24.533L153.113,200.824z"
						/>
				</g>
			</g>
		</g>
		<g>
			<path style="fill:#8380FF;" d="M247.035,336.65c0.186,0.08,0.318,0.202,0.4,0.367c0.063,0.128,0.086,0.278,0.068,0.451
				c-0.018,0.172-0.068,0.329-0.152,0.468c-0.084,0.138-0.194,0.242-0.331,0.309c-0.088,0.044-0.184,0.064-0.289,0.061
				c-0.105-0.003-0.201-0.019-0.289-0.049c-0.458-0.187-0.947-0.276-1.467-0.269c-0.52,0.007-1.028,0.135-1.527,0.382
				c-0.401,0.198-0.791,0.485-1.171,0.862c-0.379,0.377-0.691,0.835-0.935,1.376c-0.243,0.541-0.363,1.143-0.358,1.803
				c0.005,0.661,0.198,1.378,0.581,2.15c0.271,0.548,0.602,1.044,0.993,1.489c0.391,0.445,0.822,0.801,1.295,1.066
				c0.472,0.266,0.966,0.42,1.481,0.464c0.514,0.042,1.035-0.066,1.563-0.327c0.391-0.194,0.744-0.445,1.061-0.753
				c0.316-0.31,0.584-0.652,0.805-1.029c0.222-0.378,0.379-0.766,0.473-1.165c0.055-0.186,0.111-0.33,0.17-0.432
				c0.059-0.103,0.148-0.183,0.265-0.24c0.146-0.073,0.303-0.107,0.468-0.104c0.166,0.003,0.32,0.043,0.461,0.119
				c0.141,0.076,0.245,0.183,0.313,0.319c0.034,0.068,0.063,0.146,0.087,0.231c0.024,0.085,0.024,0.177-0.002,0.273
				c-0.1,0.586-0.31,1.162-0.632,1.729c-0.322,0.566-0.722,1.082-1.199,1.542c-0.478,0.463-1.015,0.841-1.611,1.136
				c-0.743,0.368-1.488,0.542-2.234,0.522c-0.746-0.02-1.459-0.194-2.139-0.521c-0.679-0.326-1.296-0.772-1.85-1.339
				c-0.554-0.565-1.01-1.211-1.369-1.935c-0.416-0.84-0.664-1.691-0.744-2.554c-0.079-0.86-0.003-1.684,0.23-2.468
				c0.232-0.785,0.611-1.496,1.135-2.134c0.525-0.637,1.188-1.153,1.99-1.551c0.479-0.236,0.98-0.409,1.506-0.518
				c0.525-0.107,1.041-0.14,1.548-0.1C246.138,336.327,246.606,336.448,247.035,336.65z"/>
			<path style="fill:#8380FF;" d="M254.645,331.11c0.156,0.02,0.288,0.071,0.395,0.152c0.107,0.081,0.195,0.19,0.263,0.326
				c0.067,0.137,0.101,0.285,0.101,0.443c0,0.159-0.037,0.306-0.111,0.439c-0.073,0.134-0.174,0.232-0.301,0.295
				c-0.039,0.02-0.102,0.034-0.188,0.046c-0.085,0.013-0.182,0.021-0.289,0.025c-0.112,0.02-0.229,0.043-0.348,0.071
				c-0.12,0.029-0.237,0.063-0.352,0.102c-0.115,0.038-0.227,0.085-0.334,0.138c-0.44,0.218-0.805,0.538-1.094,0.962
				c-0.29,0.424-0.498,0.907-0.625,1.45c-0.127,0.543-0.156,1.11-0.091,1.696c0.066,0.589,0.235,1.157,0.506,1.704
				c0.427,0.861,0.94,1.568,1.543,2.121c0.604,0.554,1.239,0.909,1.907,1.066c0.667,0.155,1.299,0.086,1.896-0.209
				c0.411-0.204,0.747-0.508,1.011-0.911c0.262-0.404,0.443-0.868,0.543-1.392c0.099-0.525,0.11-1.081,0.031-1.669
				c-0.078-0.588-0.257-1.166-0.538-1.733c-0.184-0.371-0.427-0.75-0.727-1.137c-0.302-0.387-0.634-0.74-0.999-1.058
				c-0.365-0.318-0.728-0.571-1.088-0.758c-0.146-0.074-0.277-0.156-0.394-0.244c-0.117-0.088-0.21-0.2-0.277-0.337
				c-0.106-0.24-0.119-0.48-0.037-0.721c0.081-0.242,0.23-0.416,0.444-0.522c0.078-0.038,0.165-0.066,0.26-0.083
				c0.096-0.017,0.189-0.017,0.282-0.003c0.093,0.016,0.183,0.038,0.271,0.067c0.478,0.201,0.962,0.491,1.453,0.869
				c0.491,0.378,0.955,0.821,1.389,1.331c0.436,0.51,0.801,1.063,1.096,1.658c0.416,0.84,0.681,1.671,0.795,2.491
				c0.114,0.82,0.079,1.598-0.104,2.334c-0.183,0.736-0.503,1.393-0.958,1.973c-0.457,0.579-1.052,1.05-1.785,1.412
				c-0.703,0.349-1.424,0.516-2.161,0.504c-0.736-0.013-1.448-0.19-2.135-0.531c-0.687-0.341-1.327-0.825-1.922-1.449
				c-0.596-0.625-1.106-1.367-1.532-2.228c-0.393-0.792-0.628-1.6-0.708-2.426c-0.08-0.824-0.013-1.611,0.2-2.362
				c0.213-0.75,0.554-1.425,1.025-2.023c0.47-0.6,1.063-1.075,1.776-1.428c0.343-0.17,0.668-0.294,0.976-0.374
				C254.016,331.112,254.329,331.084,254.645,331.11z"/>
			<path style="fill:#8380FF;" d="M266.415,338.615c0.061,0.224,0.037,0.423-0.072,0.593c-0.111,0.17-0.289,0.315-0.533,0.437
				c-0.264,0.131-0.493,0.159-0.688,0.084c-0.195-0.072-0.341-0.232-0.438-0.477c-0.416-1.157-0.809-2.199-1.181-3.122
				c-0.372-0.924-0.737-1.778-1.095-2.562c-0.358-0.786-0.721-1.544-1.09-2.273c-0.368-0.732-0.753-1.478-1.154-2.241
				c-0.121-0.219-0.125-0.431-0.012-0.633c0.113-0.202,0.306-0.371,0.58-0.506c0.215-0.107,0.402-0.15,0.563-0.134
				c0.161,0.018,0.321,0.09,0.482,0.219c0.594,0.411,1.171,0.81,1.733,1.195c0.563,0.386,1.122,0.772,1.679,1.159
				c0.558,0.388,1.131,0.785,1.723,1.192c0.591,0.407,1.213,0.839,1.864,1.296c0.116-0.774,0.215-1.516,0.299-2.22
				c0.082-0.705,0.149-1.396,0.197-2.07c0.05-0.676,0.085-1.36,0.107-2.053c0.022-0.693,0.04-1.421,0.053-2.182
				c0.005-0.185,0.051-0.345,0.137-0.478c0.086-0.134,0.236-0.253,0.452-0.359c0.254-0.126,0.477-0.161,0.67-0.104
				c0.192,0.057,0.34,0.189,0.441,0.394c0.382,0.724,0.734,1.41,1.057,2.061c0.322,0.65,0.642,1.307,0.958,1.972
				c0.316,0.665,0.654,1.385,1.013,2.156c0.305,0.664,0.602,1.334,0.892,2.006c0.291,0.672,0.563,1.328,0.82,1.969
				c0.106,0.239,0.111,0.445,0.016,0.622c-0.096,0.175-0.261,0.32-0.496,0.437c-0.254,0.126-0.479,0.174-0.678,0.145
				c-0.197-0.031-0.349-0.166-0.455-0.404l-0.936-2.223c-0.18-0.434-0.36-0.851-0.545-1.246c-0.184-0.396-0.363-0.791-0.54-1.184
				c-0.176-0.393-0.365-0.798-0.565-1.216c-0.201-0.419-0.413-0.864-0.636-1.34c-0.032,0.845-0.086,1.636-0.159,2.371
				c-0.074,0.736-0.162,1.457-0.265,2.159c-0.103,0.701-0.227,1.411-0.371,2.128c-0.021,0.156-0.075,0.302-0.166,0.439
				c-0.091,0.136-0.224,0.248-0.4,0.335c-0.156,0.078-0.314,0.116-0.473,0.115c-0.158-0.002-0.313-0.055-0.464-0.164
				c-0.472-0.314-0.93-0.616-1.372-0.907c-0.443-0.294-0.881-0.588-1.314-0.884c-0.434-0.298-0.881-0.605-1.344-0.925
				c-0.462-0.319-0.956-0.663-1.481-1.038c0.358,0.724,0.688,1.404,0.991,2.039c0.303,0.636,0.578,1.248,0.827,1.837
				c0.249,0.589,0.485,1.178,0.71,1.766C265.983,337.381,266.202,337.989,266.415,338.615z"/>
			<path style="fill:#8380FF;" d="M279.741,332.856c-0.205,0.102-0.418,0.143-0.641,0.125c-0.222-0.018-0.392-0.148-0.514-0.393
				c-0.049-0.099-0.115-0.25-0.2-0.459c-0.084-0.207-0.217-0.531-0.398-0.971c-0.181-0.439-0.442-1.047-0.783-1.822
				c-0.341-0.775-0.79-1.773-1.346-2.994c-0.31-0.675-0.62-1.34-0.933-1.995c-0.313-0.654-0.621-1.29-0.926-1.906
				c-0.111-0.225-0.103-0.438,0.021-0.641c0.126-0.202,0.3-0.358,0.525-0.47c0.078-0.039,0.158-0.068,0.238-0.091
				c0.08-0.021,0.185-0.064,0.311-0.126c0.371-0.184,0.728-0.395,1.067-0.629c0.34-0.235,0.69-0.443,1.053-0.622
				c0.665-0.329,1.338-0.489,2.019-0.48c0.68,0.01,1.307,0.188,1.879,0.531c0.571,0.344,1.027,0.858,1.366,1.543
				c0.367,0.742,0.511,1.42,0.431,2.032c-0.08,0.611-0.326,1.166-0.738,1.662c-0.412,0.496-0.938,0.952-1.579,1.365
				c-0.642,0.415-1.333,0.806-2.076,1.174c0.378,0.812,0.679,1.494,0.903,2.046c0.225,0.553,0.4,0.992,0.525,1.319
				c0.126,0.328,0.225,0.564,0.298,0.712c0.12,0.244,0.121,0.459,0.001,0.646C280.125,332.603,279.957,332.749,279.741,332.856z
				 M277.842,326.253c0.475-0.247,0.936-0.502,1.383-0.766c0.447-0.265,0.834-0.553,1.16-0.866c0.325-0.314,0.539-0.662,0.641-1.048
				c0.102-0.386,0.029-0.827-0.218-1.326c-0.088-0.176-0.216-0.355-0.386-0.538c-0.171-0.185-0.381-0.339-0.632-0.464
				c-0.251-0.126-0.543-0.188-0.878-0.186c-0.334,0-0.701,0.101-1.102,0.299c-0.304,0.15-0.596,0.323-0.877,0.516
				c-0.281,0.194-0.579,0.369-0.892,0.523c0.31,0.65,0.616,1.293,0.919,1.929C277.263,324.961,277.557,325.604,277.842,326.253z"/>
			<path style="fill:#8380FF;" d="M283.116,317.616c-0.107-0.239-0.099-0.452,0.021-0.641c0.12-0.186,0.283-0.331,0.488-0.433
				c0.215-0.107,0.434-0.15,0.655-0.134c0.223,0.019,0.392,0.145,0.507,0.379c0.785,1.658,1.493,3.255,2.126,4.792
				c0.634,1.536,1.271,3.053,1.915,4.549c0.185-0.116,0.385-0.236,0.598-0.36c0.213-0.123,0.412-0.23,0.598-0.323
				c0.439-0.218,0.866-0.407,1.279-0.568c0.413-0.163,0.827-0.304,1.242-0.424c0.244-0.072,0.443-0.05,0.6,0.067
				c0.155,0.118,0.277,0.265,0.364,0.44c0.111,0.227,0.14,0.449,0.085,0.67c-0.055,0.223-0.258,0.397-0.609,0.522
				c-0.366,0.12-0.766,0.267-1.198,0.438c-0.433,0.172-0.795,0.33-1.089,0.475c-0.137,0.068-0.304,0.162-0.502,0.277
				c-0.198,0.116-0.395,0.232-0.587,0.346c-0.194,0.113-0.357,0.213-0.491,0.297c-0.135,0.086-0.212,0.133-0.231,0.143
				c-0.273,0.136-0.511,0.18-0.711,0.133c-0.199-0.047-0.363-0.151-0.492-0.313c-0.129-0.162-0.234-0.338-0.316-0.529
				c-0.179-0.435-0.398-0.971-0.659-1.609c-0.262-0.637-0.549-1.322-0.863-2.056c-0.315-0.732-0.635-1.472-0.961-2.218
				c-0.327-0.745-0.642-1.456-0.947-2.133C283.632,318.725,283.358,318.13,283.116,317.616z"/>
			<path style="fill:#8380FF;" d="M290.647,313.98c-0.116-0.234-0.109-0.448,0.021-0.64c0.13-0.192,0.293-0.338,0.489-0.435
				c0.205-0.102,0.421-0.144,0.647-0.129c0.228,0.016,0.394,0.143,0.5,0.383c0.788,1.716,1.57,3.455,2.347,5.221
				c0.776,1.764,1.537,3.509,2.281,5.233c0.111,0.249,0.104,0.472-0.024,0.67c-0.128,0.197-0.294,0.347-0.499,0.448
				c-0.215,0.106-0.435,0.142-0.659,0.107c-0.225-0.035-0.397-0.199-0.518-0.492c-0.483-1.124-0.978-2.265-1.483-3.42
				c-0.506-1.157-1.017-2.319-1.534-3.486C291.697,316.273,291.174,315.118,290.647,313.98z M292.014,314.235
				c-0.273,0.135-0.506,0.162-0.698,0.081c-0.193-0.081-0.347-0.239-0.464-0.474c-0.115-0.234-0.147-0.45-0.092-0.648
				c0.055-0.197,0.219-0.364,0.492-0.5c1.046-0.518,1.969-0.965,2.768-1.343c0.8-0.378,1.523-0.709,2.174-0.994
				c0.289-0.131,0.52-0.168,0.692-0.115c0.173,0.056,0.322,0.209,0.448,0.464c0.111,0.225,0.149,0.444,0.114,0.655
				c-0.035,0.213-0.187,0.379-0.455,0.5c-0.45,0.198-0.925,0.415-1.423,0.649c-0.499,0.234-1.04,0.493-1.624,0.776
				C293.363,313.571,292.718,313.886,292.014,314.235z M294.476,319.096c-0.215,0.131-0.423,0.14-0.626,0.027
				c-0.201-0.113-0.353-0.261-0.455-0.441c-0.107-0.215-0.131-0.423-0.071-0.623c0.06-0.199,0.192-0.362,0.397-0.488
				c0.313-0.203,0.654-0.406,1.023-0.607c0.369-0.201,0.73-0.395,1.081-0.582c0.353-0.185,0.676-0.351,0.969-0.496
				c0.294-0.146,0.53-0.257,0.711-0.335c0.234-0.116,0.442-0.126,0.623-0.033c0.18,0.093,0.32,0.242,0.422,0.448
				c0.092,0.185,0.128,0.387,0.108,0.603c-0.021,0.217-0.147,0.385-0.382,0.501c-0.182,0.077-0.421,0.188-0.719,0.336
				c-0.299,0.148-0.624,0.316-0.976,0.503c-0.353,0.186-0.712,0.382-1.078,0.587C295.137,318.703,294.795,318.903,294.476,319.096z
				 M296.673,324.418c-0.21,0.116-0.415,0.12-0.614,0.012c-0.201-0.108-0.354-0.257-0.46-0.448c-0.121-0.22-0.148-0.429-0.082-0.626
				c0.066-0.198,0.2-0.351,0.401-0.463c0.748-0.431,1.523-0.857,2.324-1.279c0.803-0.421,1.589-0.823,2.361-1.205
				c0.234-0.116,0.439-0.129,0.611-0.039c0.173,0.092,0.311,0.24,0.412,0.445c0.097,0.195,0.135,0.402,0.114,0.618
				c-0.021,0.217-0.147,0.385-0.382,0.501c-0.772,0.382-1.56,0.783-2.361,1.205C298.196,323.561,297.421,323.987,296.673,324.418z"
				/>
			<path style="fill:#8380FF;" d="M299.429,310.143c-0.234,0.092-0.447,0.091-0.64-0.003c-0.193-0.094-0.34-0.242-0.441-0.447
				c-0.121-0.245-0.127-0.479-0.02-0.703c0.108-0.224,0.299-0.404,0.573-0.54c0.195-0.097,0.388-0.175,0.575-0.238
				c0.188-0.064,0.379-0.127,0.572-0.192c0.192-0.064,0.389-0.141,0.59-0.228c0.381-0.164,0.747-0.322,1.1-0.472
				c0.352-0.149,0.701-0.305,1.049-0.464c0.347-0.16,0.705-0.332,1.077-0.516c0.509-0.252,1.006-0.508,1.493-0.766
				c0.486-0.26,0.949-0.522,1.389-0.79c0.221-0.121,0.433-0.128,0.638-0.022c0.204,0.107,0.359,0.254,0.467,0.445
				c0.136,0.225,0.167,0.443,0.096,0.654c-0.071,0.213-0.212,0.377-0.423,0.493c-0.445,0.257-0.914,0.52-1.408,0.787
				c-0.494,0.271-1,0.533-1.518,0.789c-0.851,0.422-1.703,0.804-2.556,1.147C301.19,309.42,300.319,309.776,299.429,310.143z
				 M302.504,307.982c-0.101-0.254-0.097-0.474,0.014-0.655c0.11-0.182,0.278-0.329,0.503-0.44c0.137-0.068,0.284-0.11,0.44-0.127
				c0.157-0.017,0.298,0.006,0.425,0.064c0.126,0.06,0.223,0.169,0.291,0.331c0.527,1.262,1.023,2.46,1.49,3.6
				c0.466,1.139,0.934,2.273,1.402,3.405c0.469,1.131,0.969,2.307,1.502,3.529c0.121,0.245,0.121,0.46,0.001,0.647
				c-0.121,0.188-0.284,0.332-0.489,0.434c-0.225,0.111-0.446,0.156-0.662,0.136c-0.218-0.02-0.387-0.151-0.508-0.397
				c-0.392-0.914-0.772-1.794-1.142-2.64c-0.37-0.846-0.73-1.684-1.08-2.514c-0.351-0.831-0.705-1.688-1.063-2.569
				C303.27,309.903,302.896,308.969,302.504,307.982z"/>
			<path style="fill:#8380FF;" d="M309.699,304.181c-0.097-0.243-0.103-0.452-0.019-0.629c0.083-0.175,0.228-0.314,0.433-0.415
				c0.156-0.077,0.309-0.126,0.459-0.145c0.147-0.02,0.259-0.016,0.332,0.009c0.211-0.19,0.499-0.39,0.862-0.601
				c0.364-0.21,0.718-0.4,1.06-0.57c0.597-0.295,1.126-0.541,1.588-0.74c0.462-0.197,0.802-0.334,1.022-0.406
				c0.342-0.12,0.6-0.135,0.772-0.044c0.174,0.091,0.306,0.229,0.397,0.415c0.111,0.225,0.143,0.446,0.094,0.666
				c-0.05,0.22-0.222,0.39-0.515,0.51c-0.186,0.068-0.418,0.159-0.696,0.271c-0.279,0.115-0.557,0.23-0.833,0.349
				c-0.275,0.118-0.512,0.227-0.707,0.323c-0.361,0.18-0.728,0.373-1.1,0.581c-0.371,0.209-0.736,0.432-1.094,0.668l1.29,3.308
				c0.226-0.136,0.504-0.292,0.836-0.469c0.333-0.178,0.686-0.358,1.064-0.545c0.376-0.186,0.736-0.356,1.081-0.509
				c0.345-0.152,0.642-0.26,0.892-0.322c0.264-0.081,0.485-0.082,0.666-0.001c0.18,0.081,0.316,0.216,0.408,0.401
				c0.097,0.195,0.126,0.409,0.088,0.64c-0.037,0.232-0.174,0.393-0.407,0.485c-0.665,0.232-1.351,0.517-2.059,0.855
				c-0.709,0.34-1.35,0.68-1.922,1.024c0.266,0.66,0.536,1.323,0.811,1.99c0.276,0.668,0.546,1.33,0.813,1.991
				c0.425-0.272,0.918-0.561,1.478-0.869c0.56-0.308,1.113-0.603,1.661-0.887c0.548-0.283,1.026-0.515,1.438-0.693
				c0.249-0.111,0.464-0.118,0.647-0.021c0.183,0.1,0.325,0.251,0.427,0.456c0.092,0.186,0.126,0.392,0.104,0.615
				c-0.023,0.225-0.169,0.397-0.438,0.519c-0.831,0.361-1.544,0.697-2.142,1.005c-0.596,0.308-1.126,0.597-1.588,0.868
				c-0.462,0.272-0.903,0.548-1.324,0.829c-0.205,0.126-0.41,0.222-0.615,0.287c-0.205,0.064-0.395,0.062-0.571-0.01
				c-0.175-0.071-0.318-0.244-0.43-0.518c-0.73-1.745-1.453-3.514-2.171-5.307C311.072,307.754,310.375,305.966,309.699,304.181z"/>
			<path style="fill:#8380FF;" d="M323.507,310.456c-0.444-1.02-0.885-2.057-1.319-3.107c-0.436-1.052-0.872-2.106-1.313-3.167
				c-0.271-0.67-0.549-1.336-0.833-1.997c-0.286-0.663-0.578-1.31-0.879-1.94c-0.072-0.147-0.095-0.303-0.067-0.469
				c0.027-0.165,0.12-0.31,0.276-0.436c0.181-0.151,0.375-0.299,0.583-0.444c0.208-0.146,0.425-0.286,0.649-0.423
				c0.226-0.136,0.443-0.266,0.656-0.389c0.213-0.123,0.412-0.231,0.598-0.323c0.998-0.494,1.939-0.774,2.825-0.841
				c0.886-0.068,1.698,0.031,2.439,0.298c0.74,0.267,1.396,0.667,1.964,1.2c0.569,0.534,1.027,1.153,1.376,1.857
				c0.373,0.754,0.601,1.563,0.683,2.43c0.082,0.867-0.005,1.732-0.26,2.594c-0.254,0.863-0.691,1.666-1.308,2.41
				c-0.618,0.744-1.436,1.367-2.452,1.871c-0.323,0.159-0.645,0.295-0.968,0.406c-0.322,0.11-0.655,0.202-0.997,0.274
				c-0.072,0.097-0.155,0.183-0.245,0.259c-0.091,0.074-0.2,0.143-0.327,0.207c-0.195,0.097-0.397,0.133-0.604,0.106
				C323.777,310.807,323.618,310.682,323.507,310.456z M324.736,308.624c0.103-0.014,0.22-0.041,0.352-0.082
				c0.132-0.04,0.272-0.089,0.422-0.145c0.148-0.057,0.296-0.113,0.443-0.174c0.147-0.061,0.272-0.118,0.381-0.171
				c0.596-0.296,1.121-0.68,1.574-1.153c0.453-0.475,0.806-1.018,1.057-1.628c0.252-0.612,0.364-1.274,0.341-1.986
				c-0.023-0.712-0.222-1.444-0.595-2.197c-0.344-0.694-0.759-1.226-1.245-1.593c-0.486-0.368-1.002-0.609-1.545-0.724
				c-0.544-0.115-1.084-0.131-1.621-0.047c-0.537,0.083-1.025,0.233-1.466,0.451c-0.195,0.098-0.397,0.207-0.605,0.326
				c-0.207,0.122-0.403,0.244-0.587,0.364c-0.184,0.121-0.346,0.235-0.487,0.343c0.275,0.605,0.535,1.187,0.78,1.741
				c0.243,0.555,0.478,1.102,0.702,1.642c0.226,0.54,0.45,1.08,0.675,1.62c0.225,0.54,0.455,1.09,0.689,1.65
				C324.235,307.421,324.48,308.01,324.736,308.624z"/>
		</g>
		<g>
			<path style="fill:#8380FF;" d="M241.792,358.801c-0.143,0-0.214-0.033-0.279-0.063c-1.656-0.779-8.553-12.886-12.517-20.032
				l-0.195-0.353l0.104-0.39c0.196-0.738,0.717-2.7,48.084-26.649c16.224-8.203,47.233-23.567,48.937-23.671l0.721-0.044
				l0.307,0.681c0.075,0.151,0.639,1.073,1.236,2.049c8.549,13.964,9.668,17.533,8.712,18.979
				c-1.159,1.752-36.554,20.327-47.374,25.978C248.413,356.757,242.91,358.801,241.792,358.801z M231.078,338.336
				c4.55,8.174,9.693,16.835,11.14,18.426c6.785-2.268,89.042-45.209,93.02-48.59c0.125-0.863-1.276-4.583-8.756-16.8
				c-0.437-0.713-0.733-1.2-0.939-1.541C316.845,293.19,237.312,333.045,231.078,338.336z M230.76,338.655
				C230.76,338.655,230.76,338.654,230.76,338.655L230.76,338.655z"/>
		</g>
	</g>
	<g>
		<g>
			<g>
				<path style="fill:#FFFFFF;" d="M86.375,158.939c0,0,79.098,229.84,92.237,231.418c13.139,1.577,166.192-57.711,168.031-66.108
					c1.839-8.397-84.441-221.615-85.544-225.66C259.995,94.542,87.633,150.137,86.375,158.939z"/>
			</g>
			<g>
				<g>
					<path style="fill:#421B36;" d="M85.772,159.105c0.513,1.49,1.029,2.979,1.545,4.467c1.42,4.097,2.847,8.192,4.277,12.285
						c2.176,6.226,4.364,12.449,6.56,18.668c2.748,7.781,5.511,15.557,8.29,23.327c3.181,8.894,6.383,17.781,9.609,26.659
						c3.418,9.407,6.864,18.804,10.345,28.188c3.522,9.495,7.08,18.976,10.691,28.438c3.441,9.019,6.929,18.021,10.493,26.993
						c3.166,7.97,6.392,15.918,9.73,23.818c2.767,6.548,5.603,13.07,8.637,19.5c2.137,4.529,4.337,9.062,6.935,13.349
						c1.195,1.973,2.735,4.956,4.964,5.968c0.992,0.451,2.229,0.226,3.266,0.084c1.956-0.269,3.886-0.723,5.8-1.203
						c6.306-1.582,12.514-3.572,18.689-5.601c8.515-2.797,16.972-5.772,25.4-8.823c9.62-3.483,19.199-7.076,28.746-10.753
						c9.758-3.758,19.482-7.605,29.164-11.556c8.72-3.559,17.409-7.197,26.032-10.986c6.791-2.984,13.561-6.038,20.18-9.389
						c3.679-1.863,7.778-3.723,10.898-6.483c1.678-1.485,1.279-2.996,0.794-4.996c-0.94-3.882-2.247-7.687-3.523-11.468
						c-2.063-6.113-4.248-12.184-6.462-18.244c-2.847-7.792-5.758-15.561-8.695-23.319c-3.361-8.878-6.761-17.741-10.181-26.596
						c-3.669-9.5-7.363-18.99-11.072-28.475c-3.708-9.483-7.432-18.959-11.167-28.432c-3.55-9.006-7.11-18.009-10.676-27.009
						c-3.128-7.894-6.26-15.786-9.394-23.678c-2.504-6.307-5.01-12.613-7.509-18.921c-1.634-4.122-3.269-8.244-4.879-12.376
						c-0.415-1.066-0.833-2.131-1.232-3.204c-0.18-0.483-0.286-1.151-0.757-1.426c-0.708-0.414-1.957-0.092-2.694,0.019
						c-1.698,0.256-3.377,0.642-5.047,1.036c-5.643,1.33-11.228,2.913-16.797,4.518c-7.909,2.279-15.785,4.672-23.645,7.116
						c-9.183,2.855-18.342,5.788-27.481,8.78c-9.617,3.149-19.213,6.364-28.781,9.658c-9.077,3.124-18.131,6.316-27.143,9.622
						c-7.574,2.778-15.125,5.628-22.596,8.673c-5.238,2.135-10.5,4.31-15.511,6.944c-1.395,0.733-2.797,1.499-4.062,2.446
						c-0.656,0.49-1.596,1.172-1.739,2.049c-0.128,0.787,1.076,1.125,1.205,0.332c0.043-0.264,0.141-0.363,0.389-0.623
						c0.387-0.406,0.763-0.679,1.199-0.984c1.44-1.006,3.012-1.83,4.576-2.624c5.226-2.652,10.668-4.888,16.101-7.074
						c7.567-3.044,15.207-5.908,22.87-8.701c9.002-3.282,18.044-6.456,27.107-9.563c9.435-3.235,18.895-6.396,28.377-9.491
						c9.047-2.953,18.113-5.848,27.203-8.666c7.665-2.376,15.346-4.703,23.059-6.916c5.424-1.556,10.864-3.093,16.362-4.374
						c1.607-0.374,3.227-0.748,4.863-0.977c0.318-0.045,0.859-0.113,1.29-0.11c0.602,0.004,0.167,0.12,0.17-0.137
						c0.003-0.21,0.053,0.187,0.118,0.373c0.125,0.357,0.263,0.71,0.398,1.064c0.471,1.24,0.954,2.475,1.438,3.71
						c1.714,4.381,3.45,8.755,5.184,13.128c2.545,6.418,5.094,12.834,7.642,19.251c3.153,7.942,6.305,15.884,9.451,23.828
						c3.557,8.98,7.107,17.963,10.648,26.949c3.703,9.398,7.395,18.8,11.072,28.208c3.662,9.371,7.309,18.748,10.931,28.135
						c3.364,8.719,6.708,17.447,10.014,26.189c2.879,7.615,5.732,15.241,8.521,22.89c2.152,5.901,4.275,11.815,6.276,17.769
						c1.238,3.684,2.51,7.392,3.411,11.177c0.226,0.949,0.417,1.649,0.398,2.497c0,0.025-0.09,0.294-0.224,0.452
						c-0.352,0.413-0.762,0.77-1.189,1.103c-3.512,2.743-7.764,4.699-11.732,6.668c-6.795,3.372-13.724,6.475-20.676,9.505
						c-8.742,3.811-17.547,7.476-26.384,11.06c-9.579,3.886-19.197,7.673-28.849,11.373c-9.448,3.622-18.928,7.162-28.449,10.589
						c-8.186,2.947-16.402,5.82-24.675,8.513c-5.953,1.938-11.941,3.845-18.028,5.325c-1.772,0.431-3.571,0.859-5.387,1.058
						c-0.545,0.06-1.119,0.123-1.667,0.065c-0.219-0.023-0.305-0.023-0.684-0.271c-2.029-1.33-3.663-4.458-4.933-6.661
						c-2.622-4.548-4.895-9.3-7.102-14.06c-3.041-6.56-5.904-13.203-8.696-19.873c-3.364-8.034-6.62-16.114-9.82-24.216
						c-3.524-8.923-6.978-17.875-10.388-26.843c-3.571-9.391-7.093-18.801-10.58-28.223c-3.429-9.265-6.825-18.542-10.194-27.829
						c-3.166-8.725-6.308-17.458-9.43-26.198c-2.715-7.599-5.414-15.203-8.1-22.812c-2.124-6.019-4.239-12.041-6.344-18.066
						c-1.382-3.954-2.759-7.909-4.13-11.867c-0.469-1.352-0.937-2.704-1.403-4.057C86.717,158.016,85.509,158.341,85.772,159.105z"
						/>
				</g>
			</g>
		</g>
		<g>
			<path style="fill:#A0D2F4;" d="M166.982,229.322c0,0,2.337,6.383,3.171,6.635c0.834,0.253,115.132-43.038,115.191-44.97
				c0.059-1.932-1.939-6.438-1.939-6.438S168.684,224.901,166.982,229.322z"/>
		</g>
		<g>
			<path style="fill:#A0D2F4;" d="M172.528,239.13c0,0,2.312,7.236,3.171,7.382c0.859,0.147,33.928-10.899,34.103-12.396
				c0.175-1.497-2.674-7.068-2.674-7.068S176.74,236.596,172.528,239.13z"/>
		</g>
		<g>
			<path style="fill:#A0D2F4;" d="M133.498,241.642c0,0,5.997,18.452,8.097,20.985c2.1,2.533,23.831-7.677,24.231-8.811
				c0.4-1.134-5.696-19.252-7.642-22.352C157.356,230.145,133.089,238.88,133.498,241.642z"/>
		</g>
		<g>
			<g>
				<g>
					<path style="fill:#8380FF;" d="M156.241,230.778c-0.549,1.106-4.643,18.215-4.643,18.215s-10.51-4.657-10.783-4.882
						c0,0-3.246,4.634-2.986,5.796c0.26,1.161,14.335,9.242,16.968,7.525c2.633-1.717,7.457-24.533,7.457-24.533L156.241,230.778z"
						/>
				</g>
			</g>
		</g>
		<g>
			<path style="fill:#A0D2F4;" d="M182.307,263.083c0,0,2.336,6.383,3.171,6.635c0.834,0.253,113.921-41.403,113.576-43.305
				c-0.524-2.883-3.086-7.537-3.086-7.537S184.009,258.662,182.307,263.083z"/>
		</g>
		<g>
			<path style="fill:#A0D2F4;" d="M148.822,275.402c0,0,5.997,18.452,8.097,20.985c2.1,2.533,23.831-7.677,24.231-8.811
				c0.4-1.134-5.696-19.252-7.642-22.352C172.681,263.905,148.414,272.64,148.822,275.402z"/>
		</g>
		<g>
			<g>
				<g>
					<path style="fill:#8380FF;" d="M171.566,264.538c-0.549,1.107-4.643,18.216-4.643,18.216s-10.51-4.657-10.783-4.882
						c0,0-3.245,4.634-2.986,5.796s14.334,9.242,16.968,7.525c2.633-1.717,7.457-24.533,7.457-24.533L171.566,264.538z"/>
				</g>
			</g>
		</g>
		<g>
			<path style="fill:#A0D2F4;" d="M197.055,297.102c0,0,2.337,6.383,3.171,6.635c0.834,0.253,112.953-39.872,113.012-41.804
				c0.059-1.932-3.34-8.34-3.34-8.34S198.757,292.681,197.055,297.102z"/>
		</g>
		<g>
			<path style="fill:#A0D2F4;" d="M202.6,306.91c0,0,2.312,7.236,3.171,7.383c0.859,0.147,33.928-10.899,34.103-12.396
				c0.175-1.497-2.674-7.069-2.674-7.069S206.813,304.375,202.6,306.91z"/>
		</g>
		<g>
			<path style="fill:#A0D2F4;" d="M163.57,309.421c0,0,5.997,18.452,8.097,20.985c2.1,2.533,23.831-7.677,24.231-8.811
				c0.4-1.134-5.696-19.252-7.642-22.352C187.429,297.925,163.162,306.659,163.57,309.421z"/>
		</g>
		<g>
			<g>
				<g>
					<path style="fill:#8380FF;" d="M186.314,298.558c-0.549,1.106-4.643,18.215-4.643,18.215s-10.51-4.656-10.783-4.882
						c0,0-3.245,4.634-2.986,5.796c0.26,1.161,14.334,9.242,16.968,7.525c2.634-1.717,7.457-24.533,7.457-24.533L186.314,298.558z"
						/>
				</g>
			</g>
		</g>
		<g>
			<path style="fill:#A0D2F4;" d="M156.055,200.768c0,0,2.337,6.383,3.171,6.635c0.834,0.253,114.054-42.322,114.113-44.254
				c0.059-1.932-3.244-6.665-3.244-6.665S157.757,196.347,156.055,200.768z"/>
		</g>
		<g>
			<path style="fill:#A0D2F4;" d="M120.375,208.353c0,0,5.997,18.452,8.097,20.985c2.1,2.533,23.831-7.677,24.231-8.812
				c0.4-1.134-5.696-19.252-7.642-22.352C144.233,196.857,119.967,205.591,120.375,208.353z"/>
		</g>
		<g>
			<path style="fill:#8380FF;" d="M93.031,161.749c0,0,8.976,28.253,11.183,30.396c2.207,2.143,161.434-55.712,162.866-57.445
				c1.432-1.734-8.804-30.958-11.589-30.747C252.705,104.163,104.351,149.706,93.031,161.749z"/>
		</g>
		<g>
			<g>
				<g>
					<path style="fill:#8380FF;" d="M143.119,197.49c-0.549,1.106-4.643,18.215-4.643,18.215s-10.51-4.657-10.783-4.882
						c0,0-3.245,4.634-2.986,5.796c0.26,1.161,14.334,9.242,16.968,7.525c2.633-1.717,7.457-24.533,7.457-24.533L143.119,197.49z"/>
				</g>
			</g>
		</g>
		<g>
			<path style="fill:#8380FF;" d="M237.041,333.315c0.186,0.08,0.318,0.202,0.4,0.367c0.063,0.128,0.086,0.278,0.068,0.451
				c-0.018,0.173-0.068,0.33-0.152,0.469c-0.083,0.137-0.193,0.241-0.33,0.309c-0.088,0.044-0.185,0.064-0.29,0.061
				c-0.105-0.003-0.201-0.019-0.29-0.05c-0.457-0.187-0.946-0.276-1.466-0.269c-0.52,0.008-1.028,0.135-1.527,0.382
				c-0.401,0.198-0.792,0.485-1.171,0.862c-0.379,0.377-0.691,0.836-0.935,1.376c-0.244,0.541-0.363,1.142-0.358,1.804
				c0.005,0.661,0.198,1.377,0.581,2.149c0.271,0.548,0.603,1.044,0.994,1.49c0.391,0.446,0.822,0.801,1.294,1.066
				c0.472,0.265,0.965,0.419,1.481,0.463c0.514,0.044,1.035-0.066,1.563-0.327c0.391-0.194,0.745-0.444,1.061-0.753
				c0.315-0.309,0.584-0.651,0.805-1.029c0.222-0.376,0.379-0.766,0.473-1.165c0.055-0.185,0.111-0.329,0.17-0.432
				c0.059-0.103,0.148-0.183,0.265-0.24c0.146-0.072,0.303-0.107,0.468-0.105c0.167,0.003,0.32,0.044,0.461,0.119
				c0.142,0.076,0.246,0.183,0.313,0.319c0.035,0.069,0.063,0.146,0.087,0.231c0.024,0.085,0.024,0.178-0.002,0.275
				c-0.1,0.586-0.31,1.162-0.632,1.728c-0.322,0.567-0.722,1.082-1.2,1.542c-0.477,0.463-1.014,0.841-1.61,1.136
				c-0.743,0.368-1.488,0.542-2.234,0.522c-0.746-0.02-1.459-0.194-2.139-0.521c-0.679-0.326-1.296-0.773-1.85-1.339
				c-0.554-0.565-1.01-1.21-1.369-1.934c-0.416-0.84-0.664-1.691-0.744-2.554c-0.079-0.861-0.003-1.685,0.229-2.468
				c0.232-0.785,0.611-1.497,1.135-2.135c0.525-0.637,1.188-1.153,1.989-1.55c0.479-0.237,0.981-0.409,1.506-0.518
				c0.524-0.107,1.041-0.141,1.548-0.1C236.143,332.991,236.612,333.114,237.041,333.315z"/>
			<path style="fill:#8380FF;" d="M244.651,327.776c0.156,0.021,0.288,0.071,0.394,0.152c0.108,0.08,0.195,0.189,0.263,0.326
				c0.068,0.137,0.102,0.285,0.101,0.442c-0.001,0.159-0.038,0.306-0.111,0.44c-0.073,0.135-0.175,0.232-0.301,0.295
				c-0.039,0.02-0.101,0.034-0.187,0.046c-0.085,0.014-0.182,0.022-0.289,0.025c-0.112,0.02-0.229,0.043-0.348,0.071
				c-0.12,0.029-0.237,0.063-0.352,0.102c-0.115,0.038-0.226,0.085-0.333,0.138c-0.441,0.219-0.805,0.539-1.095,0.962
				c-0.289,0.424-0.497,0.907-0.624,1.45c-0.127,0.544-0.157,1.11-0.091,1.698c0.066,0.587,0.235,1.155,0.506,1.702
				c0.427,0.861,0.94,1.568,1.543,2.122c0.603,0.554,1.238,0.909,1.907,1.065c0.667,0.156,1.299,0.087,1.896-0.208
				c0.411-0.203,0.747-0.508,1.01-0.911c0.263-0.404,0.444-0.869,0.544-1.393c0.099-0.524,0.11-1.08,0.032-1.668
				c-0.079-0.589-0.257-1.166-0.539-1.732c-0.184-0.372-0.427-0.752-0.727-1.139c-0.301-0.387-0.634-0.738-0.999-1.058
				c-0.365-0.318-0.727-0.571-1.087-0.758c-0.146-0.074-0.277-0.155-0.395-0.244c-0.116-0.088-0.209-0.2-0.277-0.337
				c-0.106-0.239-0.119-0.479-0.037-0.721c0.081-0.242,0.23-0.415,0.444-0.521c0.078-0.039,0.165-0.067,0.26-0.083
				c0.096-0.017,0.189-0.019,0.282-0.003c0.093,0.016,0.183,0.037,0.27,0.066c0.477,0.202,0.961,0.492,1.453,0.87
				c0.491,0.378,0.955,0.821,1.389,1.33c0.435,0.51,0.8,1.063,1.095,1.658c0.416,0.841,0.681,1.671,0.795,2.491
				c0.114,0.82,0.079,1.598-0.105,2.335c-0.183,0.735-0.503,1.394-0.959,1.972c-0.456,0.579-1.051,1.051-1.784,1.414
				c-0.704,0.348-1.425,0.516-2.162,0.503c-0.736-0.014-1.448-0.19-2.135-0.532c-0.687-0.341-1.328-0.825-1.922-1.448
				c-0.595-0.626-1.106-1.368-1.532-2.228c-0.393-0.793-0.628-1.601-0.708-2.425c-0.08-0.826-0.013-1.613,0.2-2.364
				c0.213-0.75,0.554-1.425,1.025-2.022c0.471-0.599,1.063-1.075,1.776-1.428c0.343-0.17,0.667-0.294,0.976-0.374
				C244.022,327.777,244.335,327.75,244.651,327.776z"/>
			<path style="fill:#8380FF;" d="M256.421,335.281c0.062,0.224,0.037,0.422-0.072,0.592c-0.111,0.171-0.289,0.315-0.533,0.436
				c-0.264,0.131-0.493,0.159-0.688,0.086c-0.195-0.074-0.342-0.233-0.439-0.479c-0.415-1.157-0.808-2.199-1.18-3.121
				c-0.372-0.925-0.737-1.779-1.095-2.563c-0.358-0.785-0.722-1.542-1.089-2.273c-0.369-0.73-0.753-1.477-1.156-2.24
				c-0.12-0.22-0.124-0.431-0.012-0.634c0.113-0.202,0.307-0.37,0.58-0.506c0.215-0.106,0.403-0.15,0.564-0.134
				c0.161,0.018,0.321,0.092,0.482,0.219c0.594,0.412,1.171,0.81,1.733,1.195c0.563,0.386,1.121,0.772,1.679,1.16
				c0.558,0.388,1.131,0.784,1.723,1.192c0.591,0.407,1.213,0.84,1.864,1.295c0.115-0.774,0.215-1.515,0.298-2.22
				c0.083-0.705,0.15-1.395,0.198-2.07c0.05-0.676,0.085-1.359,0.107-2.053c0.021-0.693,0.04-1.419,0.053-2.181
				c0.005-0.186,0.051-0.345,0.137-0.479c0.086-0.133,0.236-0.253,0.451-0.359c0.255-0.126,0.478-0.161,0.671-0.104
				c0.192,0.057,0.339,0.188,0.44,0.395c0.383,0.723,0.735,1.41,1.058,2.06c0.322,0.65,0.641,1.309,0.958,1.973
				c0.316,0.664,0.654,1.384,1.013,2.156c0.305,0.664,0.602,1.333,0.892,2.005c0.291,0.672,0.563,1.328,0.82,1.969
				c0.107,0.239,0.111,0.446,0.016,0.622c-0.096,0.175-0.262,0.321-0.496,0.438c-0.254,0.126-0.48,0.173-0.678,0.144
				c-0.197-0.031-0.349-0.165-0.455-0.404l-0.936-2.222c-0.18-0.436-0.361-0.85-0.545-1.247c-0.184-0.396-0.363-0.79-0.54-1.185
				c-0.177-0.393-0.365-0.798-0.565-1.216c-0.201-0.419-0.413-0.864-0.636-1.339c-0.032,0.845-0.086,1.635-0.159,2.37
				c-0.074,0.737-0.162,1.457-0.265,2.159c-0.103,0.701-0.227,1.411-0.371,2.128c-0.021,0.156-0.075,0.303-0.166,0.439
				c-0.091,0.137-0.224,0.248-0.4,0.336c-0.156,0.077-0.313,0.115-0.473,0.114c-0.158,0-0.314-0.055-0.464-0.163
				c-0.472-0.313-0.93-0.617-1.372-0.908c-0.443-0.293-0.881-0.588-1.313-0.884c-0.434-0.297-0.881-0.604-1.344-0.925
				c-0.463-0.318-0.956-0.663-1.481-1.038c0.358,0.724,0.689,1.404,0.991,2.039c0.302,0.636,0.578,1.248,0.827,1.837
				c0.249,0.589,0.485,1.178,0.71,1.766C255.989,334.047,256.207,334.654,256.421,335.281z"/>
			<path style="fill:#8380FF;" d="M269.747,329.521c-0.205,0.102-0.418,0.145-0.641,0.125c-0.222-0.018-0.394-0.148-0.514-0.393
				c-0.049-0.099-0.115-0.25-0.2-0.459c-0.084-0.206-0.218-0.53-0.398-0.971c-0.181-0.44-0.442-1.047-0.784-1.821
				c-0.34-0.774-0.789-1.773-1.345-2.995c-0.31-0.675-0.62-1.34-0.933-1.995c-0.313-0.654-0.621-1.29-0.926-1.906
				c-0.111-0.225-0.104-0.438,0.021-0.641c0.126-0.201,0.3-0.358,0.525-0.47c0.078-0.039,0.158-0.068,0.238-0.09
				c0.08-0.023,0.185-0.064,0.312-0.127c0.371-0.184,0.727-0.393,1.067-0.629c0.34-0.235,0.69-0.443,1.053-0.622
				c0.665-0.329,1.338-0.488,2.019-0.479c0.68,0.01,1.307,0.187,1.879,0.531c0.571,0.343,1.027,0.857,1.365,1.542
				c0.368,0.743,0.512,1.42,0.432,2.032c-0.08,0.611-0.326,1.166-0.738,1.662c-0.412,0.496-0.939,0.952-1.579,1.366
				c-0.642,0.414-1.333,0.807-2.076,1.174c0.378,0.811,0.679,1.493,0.903,2.045c0.225,0.553,0.4,0.992,0.525,1.32
				c0.126,0.327,0.225,0.564,0.298,0.711c0.12,0.244,0.121,0.46,0.001,0.647C270.13,329.268,269.962,329.414,269.747,329.521z
				 M267.848,322.918c0.475-0.245,0.935-0.502,1.383-0.766c0.447-0.264,0.834-0.552,1.16-0.866c0.325-0.313,0.539-0.662,0.641-1.047
				c0.101-0.386,0.028-0.828-0.218-1.327c-0.088-0.176-0.216-0.355-0.386-0.538c-0.171-0.185-0.381-0.339-0.632-0.464
				c-0.251-0.125-0.543-0.188-0.878-0.187c-0.334,0.001-0.701,0.101-1.102,0.299c-0.304,0.15-0.596,0.323-0.877,0.517
				c-0.281,0.193-0.579,0.368-0.892,0.523c0.31,0.65,0.616,1.293,0.919,1.929C267.269,321.627,267.563,322.27,267.848,322.918z"/>
			<path style="fill:#8380FF;" d="M273.122,314.283c-0.106-0.24-0.099-0.453,0.021-0.641c0.12-0.186,0.283-0.332,0.488-0.434
				c0.215-0.106,0.434-0.15,0.655-0.133c0.222,0.019,0.392,0.144,0.507,0.379c0.785,1.657,1.493,3.255,2.126,4.792
				c0.634,1.535,1.272,3.053,1.914,4.548c0.187-0.116,0.386-0.236,0.599-0.36c0.213-0.122,0.412-0.23,0.598-0.322
				c0.44-0.219,0.866-0.408,1.279-0.569c0.413-0.162,0.827-0.303,1.242-0.424c0.244-0.071,0.443-0.05,0.6,0.068
				c0.155,0.118,0.277,0.265,0.364,0.44c0.111,0.226,0.14,0.448,0.085,0.67c-0.055,0.222-0.258,0.395-0.609,0.52
				c-0.367,0.121-0.766,0.267-1.198,0.439c-0.433,0.172-0.796,0.33-1.089,0.476c-0.137,0.067-0.304,0.16-0.502,0.275
				c-0.198,0.116-0.395,0.232-0.587,0.346c-0.194,0.113-0.358,0.213-0.491,0.299c-0.135,0.085-0.212,0.132-0.232,0.141
				c-0.274,0.136-0.511,0.181-0.711,0.133c-0.2-0.047-0.364-0.151-0.492-0.313c-0.13-0.162-0.234-0.338-0.316-0.529
				c-0.179-0.435-0.399-0.97-0.659-1.608c-0.262-0.638-0.549-1.323-0.863-2.057c-0.314-0.732-0.635-1.472-0.961-2.217
				c-0.327-0.746-0.643-1.457-0.947-2.134C273.637,315.391,273.364,314.795,273.122,314.283z"/>
			<path style="fill:#8380FF;" d="M280.653,310.645c-0.116-0.234-0.109-0.447,0.02-0.64c0.13-0.192,0.293-0.337,0.488-0.435
				c0.205-0.102,0.422-0.143,0.648-0.129c0.227,0.016,0.394,0.144,0.5,0.383c0.788,1.716,1.57,3.456,2.347,5.221
				c0.776,1.764,1.537,3.51,2.281,5.233c0.111,0.249,0.103,0.474-0.024,0.67c-0.128,0.197-0.294,0.348-0.499,0.449
				c-0.215,0.106-0.436,0.143-0.659,0.106c-0.225-0.035-0.397-0.199-0.518-0.492c-0.483-1.124-0.978-2.265-1.483-3.42
				c-0.506-1.155-1.017-2.317-1.534-3.486C281.703,312.938,281.18,311.784,280.653,310.645z M282.02,310.9
				c-0.273,0.136-0.507,0.163-0.699,0.081c-0.192-0.081-0.347-0.239-0.463-0.474c-0.116-0.234-0.146-0.45-0.092-0.648
				c0.055-0.196,0.218-0.364,0.491-0.499c1.046-0.519,1.97-0.966,2.769-1.344c0.799-0.378,1.523-0.708,2.174-0.994
				c0.289-0.13,0.52-0.168,0.692-0.114c0.173,0.055,0.322,0.209,0.448,0.463c0.111,0.226,0.149,0.444,0.114,0.656
				c-0.035,0.212-0.186,0.378-0.455,0.499c-0.45,0.198-0.925,0.415-1.423,0.649c-0.499,0.235-1.04,0.494-1.625,0.776
				C283.369,310.236,282.724,310.551,282.02,310.9z M284.482,315.761c-0.215,0.132-0.423,0.14-0.626,0.027
				c-0.201-0.113-0.353-0.261-0.455-0.441c-0.106-0.215-0.131-0.422-0.071-0.622c0.06-0.2,0.192-0.363,0.398-0.489
				c0.313-0.203,0.654-0.405,1.023-0.607c0.369-0.2,0.73-0.393,1.081-0.58c0.353-0.187,0.676-0.353,0.969-0.498
				c0.294-0.146,0.53-0.257,0.711-0.334c0.234-0.116,0.442-0.127,0.623-0.034c0.18,0.094,0.32,0.242,0.422,0.448
				c0.092,0.186,0.128,0.387,0.107,0.604c-0.021,0.218-0.147,0.385-0.383,0.501c-0.181,0.077-0.42,0.188-0.718,0.336
				c-0.299,0.148-0.624,0.316-0.976,0.503c-0.353,0.186-0.712,0.382-1.079,0.587C285.143,315.367,284.8,315.568,284.482,315.761z
				 M286.679,321.083c-0.211,0.116-0.415,0.12-0.615,0.013c-0.2-0.108-0.353-0.258-0.459-0.449c-0.121-0.22-0.148-0.429-0.082-0.626
				c0.066-0.198,0.2-0.351,0.401-0.463c0.748-0.431,1.522-0.856,2.324-1.279c0.803-0.421,1.589-0.823,2.361-1.205
				c0.234-0.116,0.44-0.129,0.611-0.039c0.173,0.093,0.311,0.24,0.412,0.445c0.097,0.195,0.135,0.402,0.114,0.618
				c-0.02,0.218-0.147,0.385-0.382,0.501c-0.774,0.382-1.561,0.784-2.361,1.205C288.202,320.226,287.426,320.652,286.679,321.083z"
				/>
			<path style="fill:#8380FF;" d="M289.435,306.808c-0.234,0.092-0.447,0.093-0.641-0.002c-0.192-0.093-0.339-0.243-0.44-0.448
				c-0.121-0.245-0.127-0.478-0.02-0.703c0.108-0.224,0.299-0.404,0.573-0.54c0.195-0.097,0.388-0.175,0.575-0.238
				c0.188-0.063,0.379-0.127,0.571-0.192c0.193-0.064,0.39-0.141,0.591-0.228c0.381-0.164,0.747-0.321,1.1-0.472
				c0.352-0.149,0.701-0.305,1.049-0.464c0.346-0.159,0.705-0.331,1.077-0.516c0.509-0.251,1.006-0.508,1.493-0.766
				c0.485-0.259,0.949-0.522,1.389-0.79c0.221-0.12,0.433-0.128,0.638-0.021c0.204,0.105,0.359,0.253,0.467,0.444
				c0.136,0.225,0.167,0.443,0.096,0.655c-0.071,0.212-0.212,0.376-0.423,0.492c-0.445,0.257-0.914,0.52-1.408,0.789
				c-0.494,0.269-1,0.531-1.518,0.787c-0.852,0.422-1.703,0.805-2.556,1.146C291.196,306.085,290.325,306.441,289.435,306.808z
				 M292.51,304.647c-0.102-0.254-0.097-0.473,0.014-0.655c0.11-0.182,0.278-0.329,0.503-0.44c0.137-0.068,0.283-0.11,0.439-0.127
				c0.156-0.016,0.298,0.006,0.425,0.064c0.126,0.061,0.223,0.171,0.291,0.331c0.527,1.262,1.023,2.461,1.49,3.6
				c0.466,1.139,0.934,2.273,1.402,3.405c0.469,1.131,0.969,2.308,1.501,3.529c0.122,0.245,0.122,0.46,0.001,0.647
				c-0.12,0.188-0.283,0.332-0.488,0.434c-0.225,0.111-0.446,0.156-0.663,0.137c-0.217-0.02-0.386-0.152-0.507-0.397
				c-0.392-0.913-0.772-1.794-1.143-2.64c-0.37-0.846-0.73-1.684-1.08-2.514c-0.35-0.83-0.705-1.688-1.063-2.569
				C293.276,306.569,292.902,305.634,292.51,304.647z"/>
			<path style="fill:#8380FF;" d="M299.705,300.848c-0.097-0.245-0.102-0.454-0.018-0.631c0.083-0.175,0.228-0.313,0.433-0.415
				c0.156-0.077,0.309-0.126,0.458-0.144c0.148-0.02,0.26-0.017,0.333,0.008c0.21-0.189,0.498-0.389,0.862-0.6
				c0.364-0.211,0.718-0.401,1.06-0.571c0.597-0.295,1.126-0.541,1.588-0.739c0.462-0.198,0.802-0.334,1.022-0.406
				c0.342-0.12,0.6-0.136,0.772-0.045c0.174,0.091,0.306,0.229,0.397,0.415c0.111,0.225,0.143,0.447,0.093,0.667
				c-0.049,0.219-0.221,0.389-0.514,0.51c-0.186,0.067-0.418,0.158-0.697,0.272c-0.278,0.114-0.556,0.229-0.832,0.349
				c-0.275,0.118-0.512,0.226-0.707,0.322c-0.361,0.18-0.729,0.373-1.1,0.581c-0.372,0.209-0.736,0.432-1.094,0.67l1.29,3.306
				c0.225-0.136,0.504-0.292,0.836-0.469c0.333-0.177,0.686-0.358,1.063-0.545c0.376-0.187,0.736-0.356,1.081-0.509
				c0.345-0.152,0.642-0.259,0.891-0.321c0.264-0.082,0.486-0.083,0.666-0.002c0.181,0.081,0.317,0.216,0.409,0.401
				c0.096,0.195,0.126,0.409,0.088,0.641c-0.037,0.232-0.174,0.394-0.407,0.485c-0.665,0.231-1.352,0.516-2.06,0.855
				c-0.709,0.339-1.351,0.679-1.922,1.024c0.265,0.659,0.536,1.322,0.812,1.989c0.275,0.668,0.546,1.33,0.813,1.991
				c0.425-0.272,0.918-0.561,1.477-0.869c0.56-0.308,1.113-0.603,1.661-0.887c0.548-0.283,1.026-0.515,1.438-0.693
				c0.249-0.111,0.464-0.118,0.647-0.02c0.183,0.1,0.324,0.251,0.426,0.456c0.092,0.186,0.127,0.392,0.104,0.615
				c-0.023,0.225-0.169,0.397-0.438,0.518c-0.831,0.361-1.544,0.697-2.142,1.005c-0.597,0.308-1.126,0.597-1.588,0.868
				c-0.463,0.272-0.903,0.548-1.324,0.83c-0.205,0.125-0.41,0.221-0.615,0.286c-0.205,0.064-0.396,0.061-0.571-0.01
				c-0.175-0.071-0.319-0.244-0.431-0.518c-0.728-1.745-1.452-3.514-2.17-5.307C301.078,304.42,300.38,302.631,299.705,300.848z"/>
			<path style="fill:#8380FF;" d="M313.512,307.122c-0.444-1.021-0.885-2.058-1.32-3.108c-0.435-1.051-0.872-2.105-1.311-3.167
				c-0.271-0.669-0.549-1.335-0.833-1.997c-0.286-0.662-0.579-1.309-0.879-1.939c-0.072-0.146-0.095-0.303-0.067-0.469
				c0.027-0.165,0.12-0.312,0.276-0.438c0.181-0.15,0.375-0.298,0.583-0.444c0.208-0.146,0.425-0.286,0.649-0.423
				c0.225-0.135,0.443-0.265,0.656-0.389c0.213-0.123,0.412-0.232,0.598-0.323c0.998-0.494,1.94-0.774,2.825-0.841
				c0.886-0.067,1.698,0.032,2.44,0.298c0.74,0.267,1.395,0.667,1.964,1.2c0.569,0.536,1.027,1.154,1.376,1.857
				c0.373,0.754,0.601,1.563,0.683,2.429c0.082,0.867-0.005,1.731-0.26,2.595c-0.254,0.862-0.691,1.665-1.309,2.409
				c-0.617,0.744-1.435,1.367-2.451,1.871c-0.323,0.159-0.646,0.295-0.968,0.406c-0.322,0.11-0.655,0.202-0.997,0.274
				c-0.073,0.097-0.155,0.183-0.245,0.259c-0.091,0.074-0.2,0.144-0.327,0.207c-0.196,0.097-0.397,0.133-0.604,0.106
				C313.783,307.472,313.624,307.348,313.512,307.122z M314.742,305.29c0.103-0.014,0.22-0.041,0.352-0.083
				c0.132-0.04,0.273-0.089,0.422-0.145c0.148-0.056,0.296-0.113,0.443-0.174c0.147-0.06,0.272-0.118,0.381-0.171
				c0.596-0.296,1.121-0.68,1.574-1.153c0.453-0.474,0.806-1.017,1.057-1.628c0.251-0.612,0.364-1.274,0.341-1.985
				c-0.023-0.713-0.223-1.445-0.596-2.198c-0.343-0.694-0.758-1.225-1.244-1.593c-0.486-0.368-1.002-0.609-1.546-0.724
				c-0.543-0.114-1.084-0.131-1.62-0.046c-0.537,0.082-1.025,0.233-1.466,0.45c-0.195,0.098-0.397,0.207-0.605,0.327
				c-0.208,0.122-0.403,0.243-0.587,0.363c-0.184,0.122-0.346,0.236-0.487,0.344c0.275,0.605,0.535,1.186,0.779,1.74
				c0.244,0.556,0.479,1.104,0.703,1.643c0.226,0.539,0.45,1.08,0.675,1.619c0.225,0.54,0.455,1.09,0.69,1.65
				C314.241,304.086,314.486,304.675,314.742,305.29z"/>
		</g>
		<g>
			<path style="fill:#8380FF;" d="M231.797,355.466c-0.143,0-0.214-0.033-0.279-0.063c-1.655-0.778-8.553-12.885-12.517-20.032
				l-0.195-0.352l0.104-0.39c0.196-0.738,0.717-2.699,48.084-26.648c16.224-8.203,47.232-23.567,48.936-23.671l0.721-0.044
				l0.308,0.681c0.073,0.15,0.637,1.07,1.233,2.044c8.552,13.968,9.671,17.537,8.715,18.982
				c-1.158,1.752-36.554,20.327-47.374,25.979C238.42,353.422,232.916,355.466,231.797,355.466z M221.085,335.001
				c4.549,8.174,9.692,16.835,11.139,18.426c6.785-2.269,89.043-45.209,93.019-48.59c0.126-0.864-1.276-4.585-8.757-16.804
				c-0.436-0.711-0.732-1.196-0.936-1.536C306.852,289.855,227.32,329.709,221.085,335.001z M220.766,335.32
				C220.766,335.32,220.766,335.319,220.766,335.32L220.766,335.32z M315.104,285.695
				C315.104,285.695,315.104,285.695,315.104,285.695S315.104,285.695,315.104,285.695z M315.102,285.692
				C315.103,285.693,315.103,285.693,315.102,285.692C315.103,285.693,315.103,285.693,315.102,285.692z"/>
		</g>
	</g>
</g>
<g id="Hands_Character">
	<g>
		<g>
			<g>
				<g>
					<path style="fill:#FFAE7A;" d="M393.824,212.906c-23.647-6.652-82.248,33.925-75.171,46.802
						c6.238,11.351,19.34,2.019,19.34,2.019l30.613-22.116l34.167,32.849c0,0,24.294,43.84,37.14,58.036
						c12.847,14.197,24.042,30.649,24.042,30.649l31.008-49.98C480.707,287.655,422.225,220.895,393.824,212.906z"/>
				</g>
			</g>
			<g>
				<g>
					<path style="fill:#FFAE7A;" d="M404.186,252.448l-31.488,3.522c0,0-37.735,26.458-40.868,36.664
						c-3.8,12.378,12.73,14.911,12.73,14.911s2.264,14.773,22.286,8.15c0,0,0.465,10.715,14.275,6.407
						c13.81-4.308,28.075-20.051,28.075-20.051l10.978-29.513L404.186,252.448z"/>
				</g>
			</g>
			<g>
				<g>
					<g>
						<g>
							<path style="fill:#8380FF;" d="M301.877,291.811l9.932-15.158c0.139-0.212,0.318-0.389,0.531-0.525
								c6.883-4.369,122.211-77.477,127.406-74.517c4.347,2.476,6.457,11.512,7.097,14.827c0.142,0.735-0.192,1.474-0.835,1.857
								c-11.837,7.043-119.588,71.104-126.551,73.459c-0.08,0.027,0.084-0.015,0,0l-15.786,2.783
								C302.137,294.806,301.023,293.114,301.877,291.811z"/>
						</g>
					</g>
					<g>
						<g>
							<path style="fill:#A0D2F4;" d="M439.653,200.548c0,0,7.946-5.215,10.471-5.019c2.525,0.196,10.029,11.865,7.759,14.572
								c-2.269,2.707-11.006,6.61-11.006,6.61L439.653,200.548z"/>
						</g>
					</g>
					<g>
						<g>
							<g>
								<path style="fill:#421B36;" d="M299.958,296.166c0.075-0.072,0.148-0.148,0.227-0.216c-0.22,0.191,0.048-0.04,0.089-0.077
									c0.157-0.138,0.317-0.272,0.48-0.402c0.327-0.261,0.666-0.506,1.015-0.735c0.175-0.115,0.352-0.225,0.532-0.331
									c0.09-0.053,0.18-0.105,0.272-0.156c0.05-0.028,0.354-0.211,0.099-0.056c0.353-0.213,0.756-0.371,1.137-0.527
									c0.518-0.213,0.862-0.834,0.63-1.38c-0.22-0.52-0.824-0.859-1.379-0.63c-1.78,0.732-3.366,1.796-4.745,3.134
									c-0.404,0.392-0.294,1.183,0.133,1.511C298.947,296.683,299.527,296.584,299.958,296.166L299.958,296.166z"/>
							</g>
						</g>
					</g>
				</g>
				<g>
					<g>
						<g>
							<path style="fill:#FFFFFF;" d="M315.899,280.577c32.435-19.868,65.626-38.458,98.393-57.765
								c9.18-5.409,18.326-10.877,27.413-16.443c1.177-0.721-0.066-2.469-1.241-1.75c-32.435,19.868-65.626,38.458-98.393,57.765
								c-9.18,5.409-18.326,10.877-27.413,16.443C313.482,279.548,314.725,281.296,315.899,280.577L315.899,280.577z"/>
						</g>
					</g>
				</g>
				<g>
					<g>
						<g>
							<path style="fill:#FFFFFF;" d="M321.353,286.785c31.796-19.477,64.347-37.674,96.474-56.591
								c9.086-5.35,18.136-10.761,27.128-16.269c1.177-0.721-0.066-2.469-1.24-1.75c-31.796,19.477-64.347,37.674-96.474,56.591
								c-9.086,5.35-18.136,10.761-27.128,16.269C318.936,285.756,320.179,287.504,321.353,286.785L321.353,286.785z"/>
						</g>
					</g>
				</g>
				<g>
					<g>
						<g>
							<path style="fill:#421B36;" d="M311.629,277.657c3.936,3.431,6.508,8.258,7.147,13.441c0.168,1.367,2.306,1.185,2.136-0.188
								c-0.709-5.75-3.537-11.089-7.906-14.896C311.964,275.105,310.587,276.749,311.629,277.657L311.629,277.657z"/>
						</g>
					</g>
				</g>
				<g>
					<g>
						<g>
							<path style="fill:#421B36;" d="M438.472,203.033c4.158,3.837,6.725,9.178,7.171,14.813c0.109,1.376,2.245,1.189,2.136-0.188
								c-0.491-6.206-3.358-12.05-7.93-16.268C438.834,200.451,437.46,202.098,438.472,203.033L438.472,203.033z"/>
						</g>
					</g>
				</g>
			</g>
			<g>
				<g>
					<path style="fill:#FFAE7A;" d="M409.074,280.699c-5.961-2.374-22.451-8.18-31.747-10.263
						c-9.296-2.082-31.095-9.848-34.158,2.434c-3.062,12.282,9.571,16.55,37.75,30.458c11.446,5.65,20.182,24.957,38.252,33.854
						c18.07,8.898,40.536-10.655,40.536-10.655L409.074,280.699z"/>
				</g>
			</g>
			<g>
				<g>
					<path style="fill:#421B36;" d="M360.382,318.358c9.905-1.552,17.059-9.128,23.484-16.191c0.756-0.832-0.478-2.073-1.237-1.237
						c-6.237,6.857-13.092,14.234-22.712,15.741C358.808,316.845,359.279,318.531,360.382,318.358L360.382,318.358z"/>
				</g>
			</g>
		</g>
		<g>
			<g>
				<path style="fill:#421B36;" d="M414.341,280.342c-15.15-5.648-30.831-10.682-46.785-13.47
					c-3.486-0.609-6.978-1.012-10.504-1.292c-2.065-0.164-4.15-0.364-6.212-0.058c-1.902,0.282-3.541,1.124-5.022,2.336
					c-3.068,2.51-4.516,6.44-3.206,10.267c1.373,4.01,4.886,6.811,8.536,8.696c4.616,2.384,9.862,3.895,14.848,5.292
					c5.132,1.438,10.388,2.52,15.718,2.829c-0.281-0.214-0.562-0.428-0.844-0.642c3.271,10.195,11.653,18.18,19.978,24.464
					c3.879,2.927,7.807,5.524,12.467,7.017c4.51,1.445,9.295,2.107,14.022,2.201c4.189,0.083,8.747-0.137,12.689-1.698
					c1.035-0.41,0.584-2.103-0.465-1.688c-3.264,1.292-6.922,1.588-10.4,1.64c-4.55,0.069-9.135-0.423-13.534-1.601
					c-4.49-1.202-8.263-3.304-12.016-5.999c-4.239-3.044-8.258-6.428-11.834-10.234c-3.949-4.201-7.444-9.03-9.221-14.569
					c-0.124-0.387-0.444-0.619-0.844-0.642c-8.848-0.514-17.502-3.162-25.772-6.211c-3.91-1.442-8.151-3.493-10.519-7.089
					c-2.401-3.645-1.874-7.854,1.485-10.678c3.29-2.766,7.397-2.088,11.367-1.795c3.256,0.241,6.489,0.713,9.7,1.297
					c7.615,1.384,15.124,3.35,22.545,5.534c7.872,2.317,15.666,4.911,23.355,7.778C414.932,282.423,415.388,280.733,414.341,280.342
					L414.341,280.342z"/>
			</g>
		</g>
		<g>
			<g>
				<path style="fill:#421B36;" d="M385.89,253.97c7.903,7.358,14.827,15.693,20.598,24.819c0.6,0.949,2.115,0.072,1.511-0.883
					c-5.848-9.248-12.864-17.718-20.872-25.173C386.304,251.966,385.063,253.201,385.89,253.97L385.89,253.97z"/>
			</g>
		</g>
		<g>
			<g>
				<path style="fill:#421B36;" d="M344.576,308.719c9.907-1.494,18.846-7.613,23.888-16.261c0.568-0.975-0.944-1.857-1.511-0.883
					c-4.835,8.294-13.358,14.027-22.842,15.457C343,307.199,343.472,308.885,344.576,308.719L344.576,308.719z"/>
			</g>
		</g>
	</g>
	<g>
		<g>
			<g>
				<g>
					<g>
						<path style="fill:#FFAE7A;" d="M144.81,330.172c-0.949-1.242-1.773-23.782-2.339-38.18
							c-0.566-14.399,3.476-50.739-3.326-56.299c-6.801-5.56-15.037-4.258-17.87,6.686c-2.833,10.943-3.436,49.021-3.436,49.021
							s-3.561-43.068-8.402-52.21c-4.177-7.888-23.852-7.662-18.82,13.765c0,0-2.294-3.993-7.179,6.247
							c-4.885,10.24-4.987,22.577-4.987,22.577s-9.31-7.6-13.872,8.392c-4.563,15.993,2.457,42.316,9.997,60.433
							c7.54,18.117,9.955,24.443-0.035,38.891c-9.99,14.448-30.776,19.83-30.776,19.83l40.388,47.029
							c0,0,42.99-29.135,57.582-53.004c14.592-23.869,25.163-47.06,27.608-60.885c2.445-13.825,18.345-25.096,17.183-33.743
							c-1.162-8.646-10.409-12.444-20.375-6.064C153.232,310.928,144.81,330.172,144.81,330.172z"/>
					</g>
				</g>
			</g>
		</g>
		<g>
			<g>
				<path style="fill:#421B36;" d="M183.821,302.735c-2.13,0.645-4.212,1.599-5.778,3.222c-1.292,1.339-2.114,3.013-2.702,4.761
					c-0.697,2.07-1.06,4.257-0.708,6.432c0.402,2.488,1.802,4.606,3.678,6.244c0.845,0.738,2.088-0.495,1.238-1.237
					c-1.662-1.451-2.899-3.254-3.228-5.472c-0.276-1.862,0.116-3.74,0.708-5.501c0.491-1.459,1.173-2.87,2.252-3.988
					c1.36-1.41,3.158-2.212,5.006-2.772C185.361,304.097,184.903,302.407,183.821,302.735L183.821,302.735z"/>
			</g>
		</g>
		<g>
			<g>
				<path style="fill:#421B36;" d="M89.341,252.517c1.603,17.874,2.919,35.772,4.394,53.657c0.424,5.138,0.862,10.274,1.322,15.408
					c0.1,1.113,1.851,1.123,1.75,0c-1.603-17.874-2.919-35.772-4.394-53.657c-0.424-5.138-0.862-10.274-1.322-15.408
					C90.991,251.404,89.24,251.393,89.341,252.517L89.341,252.517z"/>
			</g>
		</g>
		<g>
			<g>
				<path style="fill:#421B36;" d="M83.896,325.586c-3.476-13.18-5.005-26.829-4.503-40.452c0.191-5.187,0.807-10.892,1.477-15.737
					c0.354-2.556,0.977-5.099,1.876-7.517c1.352-3.636,3.645-7.586,7.704-8.519c1.097-0.252,0.633-1.94-0.465-1.688
					c-6.97,1.603-9.647,10.229-10.673,16.414c-1.884,11.363-2.234,23.038-1.214,34.503c0.705,7.921,2.084,15.772,4.111,23.461
					C82.495,327.139,84.183,326.677,83.896,325.586L83.896,325.586z"/>
			</g>
		</g>
		<g>
			<g>
				<path style="fill:#421B36;" d="M144.492,328.437c1.018,6.492,2.286,12.94,3.802,19.334c0.26,1.095,1.948,0.632,1.687-0.465
					c-1.516-6.394-2.784-12.842-3.802-19.334C146.005,326.863,144.318,327.334,144.492,328.437L144.492,328.437z"/>
			</g>
		</g>
		<g>
			<g>
				<path style="fill:#421B36;" d="M80.295,274.551c3.051-0.403,5.914-1.79,8.013-4.068c2.181-2.368,3.397-5.502,3.464-8.712
					c0.023-1.127-1.727-1.126-1.75,0c-0.114,5.484-4.237,10.306-9.726,11.03c-0.472,0.062-0.87,0.358-0.875,0.875
					C79.415,274.101,79.826,274.613,80.295,274.551L80.295,274.551z"/>
			</g>
		</g>
		<g>
			<g>
				<path style="fill:#421B36;" d="M91.466,255.257c3.851-1.098,7.22-3.697,9.172-7.209c2.138-3.847,2.43-8.584,0.875-12.687
					c-0.395-1.043-2.088-0.591-1.688,0.465c1.395,3.68,1.225,7.871-0.699,11.339c-1.734,3.125-4.699,5.427-8.126,6.405
					C89.92,253.878,90.379,255.567,91.466,255.257L91.466,255.257z"/>
			</g>
		</g>
		<g>
			<g>
				<path style="fill:#421B36;" d="M120.991,249.051c3.765,2.393,8.652,1.198,11.636-1.872c3.321-3.417,4.222-8.283,4.132-12.886
					c-0.022-1.125-1.772-1.128-1.75,0c0.078,3.977-0.557,8.256-3.314,11.322c-2.455,2.73-6.54,4.009-9.82,1.924
					C120.921,246.934,120.042,248.448,120.991,249.051L120.991,249.051z"/>
			</g>
		</g>
		<g>
			<g>
				<path style="fill:#421B36;" d="M116.523,278.048c0.223,6.745,0.43,13.5,1.064,20.222c0.495,5.249,1.087,10.774,3.149,15.677
					c0.43,1.023,2.124,0.573,1.688-0.465c-2.056-4.891-2.645-10.393-3.125-15.628c-0.604-6.584-0.806-13.2-1.025-19.806
					C118.236,276.924,116.486,276.919,116.523,278.048L116.523,278.048z"/>
			</g>
		</g>
	</g>
</g>
</svg>
