<svg version="1.2" xmlns="http://www.w3.org/2000/svg" viewBox="0 0 343 192" width="343" height="192"><style>.a{fill:#a855f7}</style><path class="a" d="m234.3 49.9c-0.7-1-1.7-1.6-2.9-1.7-2.1-0.2-3.6-0.4-5-0.4-1.2 0-2.2 0.1-3 0.4-0.7-0.5-1.5-0.8-2.3-0.8h-0.3c-0.3 0-0.7 0.1-1 0.2-7.9 2.2-12.5 6.7-14.5 14-4.3 15.6-8.7 31.4-13 46.7l-3 10.7c-1.5-3.9-3-7.8-4.6-11.8-7.7-19.7-15.6-40.2-23.2-60.3-2.4-6.3-7.7-6.3-9.5-6.3h-2.2c-0.8 0-1.6 0.2-2.3 0.6-0.6-0.4-1.4-0.6-2.1-0.6-0.4 0-0.8 0.1-1.1 0.2-7.5 2.2-12.2 6.9-14.2 14.4-1.7 6.1-3.4 12.4-5.1 18.4-0.9 3.1-1.7 6.1-2.5 9.2-3.6 13.2-7.3 26.3-10.9 39.5l-4.5 16.2c-0.3 1-0.1 2.1 0.4 3.1 0.5 0.9 1.4 1.6 2.4 1.9 2.9 0.8 4.8 1.3 6.5 1.3 1.1 0 2-0.2 2.8-0.5 0.6 0.3 1.3 0.5 1.9 0.5 0.4 0 0.8-0.1 1.1-0.2 7.7-2.3 12.4-6.9 14.4-14 2.8-10.1 5.6-20.3 8.4-30.4 2.5-9.1 5-18.2 7.5-27.2l5.4 13.5c7.5 18.9 15.2 38.4 22.6 57.6 2.6 6.8 7.6 7.1 11.3 7.3h0.7c1.3 0 2.4-0.3 3.3-0.6 0.4 0.1 0.8 0.2 1.2 0.2 0.4 0 0.8-0.1 1.2-0.2 7.1-2.2 11.5-6.5 13.4-13.1 3.1-11 6.3-22.5 9.5-34 3.2-11.7 6.4-23.4 9.7-35.2l4.2-15.3c0.2-1.1 0-2.4-0.7-3.3zm-113.9 84.7c-1.2 4.5-1.7 6-3.9 6-1.2 0-2.9-0.5-5.5-1.1 5.1-18.5 10.2-37.1 15.4-55.7 2.5-9.2 5.1-18.4 7.6-27.6 1.5-5.6 4.7-9.6 11.5-11.6-1.3 4.8-2.4 8.8-3.5 12.9zm75 2.8c-0.7 2.8-1.5 5.6-2.3 8.5-0.1 0.5-0.2 1-0.1 1.5h-0.9c-3.5-0.2-6.2-0.3-7.9-4.8-9.7-25.5-19.9-50.8-29.9-76.2-0.6-1.5-1.3-3-2.3-5.5-1.2 4-2.2 7.1-3.1 10.2-5.4 19.4-10.7 38.9-16 58.3-1.4 5.2-4.7 8.6-10 10.6 0.6-1.3 1-2.8 1.4-4.4 6.2-22.3 12.4-44.6 18.7-66.9l2.8-10.2c0.8-2.7 1.5-5.5 2.3-8.4l1.2-4.5c0.1-0.3 0.1-0.6 0.1-0.9 0.1-0.1 0.3-0.1 0.4-0.1h2.3c2.3 0 4.5 0.4 5.7 3.7 10.1 26.7 20.5 53.1 30.7 79.7 0.3 0.8 0.6 1.5 1.4 3.3 1.1-3.6 1.9-6.3 2.6-8.9 5.5-19.9 11.1-39.8 16.6-59.7 1.4-5.3 4.5-8.7 10-10.6-0.7 1.5-1.2 3.3-1.8 5.2-2.5 8.9-4.9 17.8-7.4 26.6-3.2 12.1-6.5 24.3-9.9 36.4-1.5 5.6-3 11.2-4.6 17.1zm21.7-34.8c-3.1 11.3-6.3 22.6-9.5 33.9-1.4 5.1-4.6 8.5-10.7 10.4 2.5-9.1 4.6-17.3 6.9-25.5 5.8-21 11.6-42.1 17.4-63.1 1.4-5.2 1.8-6.5 5.1-6.5 1.1 0 2.6 0.1 4.6 0.3-4.6 17.1-9.2 33.8-13.8 50.5z"/></svg>