<svg width="36" height="37" viewBox="0 0 36 37" fill="none" xmlns="http://www.w3.org/2000/svg">
<path d="M28.62 16.52C22.86 13.1 13.23 12.74 7.74 14.45C6.84 14.72 5.94 14.18 5.67 13.37C5.4 12.47 5.94 11.57 6.75 11.3C13.14 9.41 23.67 9.77 30.33 13.73C31.14 14.18 31.41 15.26 30.96 16.07C30.51 16.7 29.43 16.97 28.62 16.52ZM28.44 21.56C27.99 22.19 27.18 22.46 26.55 22.01C21.69 19.04 14.31 18.14 8.64 19.94C7.92 20.12 7.11 19.76 6.93 19.04C6.75 18.32 7.11 17.51 7.83 17.33C14.4 15.35 22.5 16.34 28.08 19.76C28.62 20.03 28.89 20.93 28.44 21.56ZM26.28 26.51C25.92 27.05 25.29 27.23 24.75 26.87C20.52 24.26 15.21 23.72 8.91 25.16C8.28 25.34 7.74 24.89 7.56 24.35C7.38 23.72 7.83 23.18 8.37 23C15.21 21.47 21.15 22.1 25.83 24.98C26.46 25.25 26.55 25.97 26.28 26.51ZM18 0.5C15.6362 0.5 13.2956 0.965584 11.1117 1.87017C8.92784 2.77475 6.94353 4.10062 5.27208 5.77208C1.89642 9.14773 0 13.7261 0 18.5C0 23.2739 1.89642 27.8523 5.27208 31.2279C6.94353 32.8994 8.92784 34.2252 11.1117 35.1298C13.2956 36.0344 15.6362 36.5 18 36.5C22.7739 36.5 27.3523 34.6036 30.7279 31.2279C34.1036 27.8523 36 23.2739 36 18.5C36 16.1362 35.5344 13.7956 34.6298 11.6117C33.7252 9.42784 32.3994 7.44353 30.7279 5.77208C29.0565 4.10062 27.0722 2.77475 24.8883 1.87017C22.7044 0.965584 20.3638 0.5 18 0.5Z" fill="#757575"/>
</svg>
