<svg width="48" height="49" viewBox="0 0 48 49" fill="none" xmlns="http://www.w3.org/2000/svg">
<path d="M39 45.5H16.5C15.7044 45.5 14.9413 45.1839 14.3787 44.6213C13.8161 44.0587 13.5 43.2957 13.5 42.5V33.5H16.5V42.5H39V9.5H25.5V6.5H39C39.7956 6.5 40.5587 6.81607 41.1213 7.37868C41.6839 7.94129 42 8.70435 42 9.5V42.5C42 43.2957 41.6839 44.0587 41.1213 44.6213C40.5587 45.1839 39.7956 45.5 39 45.5Z" fill="#757575"/>
<path d="M25.5 15.5H36V18.5H25.5V15.5ZM24 23H36V26H24V23ZM22.5 30.5H36V33.5H22.5V30.5ZM13.5 29C11.5116 28.9976 9.60534 28.2067 8.19933 26.8007C6.79332 25.3947 6.00238 23.4884 6 21.5V5H9V21.5C9 22.6935 9.47411 23.8381 10.318 24.682C11.1619 25.5259 12.3065 26 13.5 26C14.6935 26 15.8381 25.5259 16.682 24.682C17.5259 23.8381 18 22.6935 18 21.5V8C18 7.60218 17.842 7.22064 17.5607 6.93934C17.2794 6.65804 16.8978 6.5 16.5 6.5C16.1022 6.5 15.7206 6.65804 15.4393 6.93934C15.158 7.22064 15 7.60218 15 8V23H12V8C12 6.80653 12.4741 5.66193 13.318 4.81802C14.1619 3.97411 15.3065 3.5 16.5 3.5C17.6935 3.5 18.8381 3.97411 19.682 4.81802C20.5259 5.66193 21 6.80653 21 8V21.5C20.9976 23.4884 20.2067 25.3947 18.8007 26.8007C17.3947 28.2067 15.4884 28.9976 13.5 29Z" fill="#757575"/>
</svg>
