<svg width="36" height="37" viewBox="0 0 36 37" fill="none" xmlns="http://www.w3.org/2000/svg">
<path fill-rule="evenodd" clip-rule="evenodd" d="M0 4.1C0 3.14522 0.379285 2.22955 1.05442 1.55442C1.72955 0.879285 2.64522 0.5 3.6 0.5L32.4 0.5C33.3548 0.5 34.2705 0.879285 34.9456 1.55442C35.6207 2.22955 36 3.14522 36 4.1V32.9C36 33.4945 35.8533 34.0798 35.5728 34.604C35.2647 35.1773 34.807 35.6564 34.2483 35.9903C33.6896 36.3241 33.0508 36.5003 32.4 36.5H3.6C2.64522 36.5 1.72955 36.1207 1.05442 35.4456C0.379285 34.7705 0 33.8548 0 32.9L0 4.1ZM11.64 8.0408L10.8 7.2008L2.4 15.6008V4.1C2.4 3.78174 2.52643 3.47652 2.75147 3.25147C2.97652 3.02643 3.28174 2.9 3.6 2.9H32.4C32.7183 2.9 33.0235 3.02643 33.2485 3.25147C33.4736 3.47652 33.6 3.78174 33.6 4.1V24.5H28.0968L11.6496 8.0504L11.64 8.0408Z" fill="#757575"/>
</svg>
