<svg width="36" height="37" viewBox="0 0 36 37" fill="none" xmlns="http://www.w3.org/2000/svg">
<path d="M36 3.5V9.5C36 10.2956 35.6839 11.0587 35.1213 11.6213C34.5587 12.1839 33.7957 12.5 33 12.5C32.2043 12.5 31.4413 12.1839 30.8787 11.6213C30.3161 11.0587 30 10.2956 30 9.5V6.5H21V30.5H24C24.7956 30.5 25.5587 30.8161 26.1213 31.3787C26.6839 31.9413 27 32.7043 27 33.5C27 34.2957 26.6839 35.0587 26.1213 35.6213C25.5587 36.1839 24.7956 36.5 24 36.5H12C11.2044 36.5 10.4413 36.1839 9.87868 35.6213C9.31607 35.0587 9 34.2957 9 33.5C9 32.7043 9.31607 31.9413 9.87868 31.3787C10.4413 30.8161 11.2044 30.5 12 30.5H15V6.5H6V9.5C6 10.2956 5.68393 11.0587 5.12132 11.6213C4.55871 12.1839 3.79565 12.5 3 12.5C2.20435 12.5 1.44129 12.1839 0.87868 11.6213C0.316071 11.0587 0 10.2956 0 9.5V3.5C0 2.70435 0.316071 1.94129 0.87868 1.37868C1.44129 0.816071 2.20435 0.5 3 0.5L33 0.5C33.7957 0.5 34.5587 0.816071 35.1213 1.37868C35.6839 1.94129 36 2.70435 36 3.5Z" fill="#757575"/>
</svg>
