<svg width="36" height="29" viewBox="0 0 36 29" fill="none" xmlns="http://www.w3.org/2000/svg">
<path fill-rule="evenodd" clip-rule="evenodd" d="M5.65716 28.8654H20.0572C21.5576 28.8654 22.9965 28.2488 24.0574 27.1513C25.1183 26.0537 25.7144 24.5651 25.7144 23.0129V19.446L33.655 24.3749C33.8982 24.5238 34.1747 24.6045 34.4573 24.609C34.7231 24.6181 34.9863 24.5519 35.2184 24.4175C35.455 24.2787 35.652 24.0776 35.7892 23.8347C35.9265 23.5917 35.9993 23.3156 36.0001 23.0342V6.00847C35.9993 5.72707 35.9265 5.4509 35.7892 5.20797C35.652 4.96503 35.455 4.76396 35.2184 4.62513C34.9822 4.47887 34.712 4.40163 34.4367 4.40163C34.1614 4.40163 33.8912 4.47887 33.655 4.62513L25.7144 9.55409V5.98717C25.7144 4.43496 25.1183 2.94634 24.0574 1.84876C22.9965 0.751192 21.5576 0.134583 20.0572 0.134583H5.65716C4.15679 0.134583 2.71787 0.751192 1.65694 1.84876C0.59602 2.94634 0 4.43496 0 5.98717V23.0129C0 24.5651 0.59602 26.0537 1.65694 27.1513C2.71787 28.2488 4.15679 28.8654 5.65716 28.8654ZM3.83888 4.10607C4.32112 3.60718 4.97517 3.3269 5.65716 3.3269H20.0572C20.7392 3.3269 21.3932 3.60718 21.8755 4.10607C22.3577 4.60497 22.6286 5.28162 22.6286 5.98717V23.0129C22.6286 23.7184 22.3577 24.3951 21.8755 24.894C21.3932 25.3929 20.7392 25.6731 20.0572 25.6731H5.65716C4.97517 25.6731 4.32112 25.3929 3.83888 24.894C3.35664 24.3951 3.08572 23.7184 3.08572 23.0129V5.98717C3.08572 5.28162 3.35664 4.60497 3.83888 4.10607ZM32.9144 20.2036L25.7144 15.7344V13.2657L32.9144 8.79643V20.2036Z" fill="#757575"/>
</svg>
